<svg version="1.1" xmlns="http://www.w3.org/2000/svg" viewBox="0 0 82.66665649414062 235.77777099609375" width="82.66665649414062" height="235.77777099609375">
  <!-- svg-source:excalidraw -->
  
  <defs>
    <style class="style-fonts">
      @font-face {
        font-family: "Virgil";
        src: url("https://excalidraw.com/Virgil.woff2");
      }
      @font-face {
        font-family: "Cascadia";
        src: url("https://excalidraw.com/Cascadia.woff2");
      }
    </style>
  </defs>
  <rect x="0" y="0" width="82.66665649414062" height="235.77777099609375" fill="#ffffff"/><g transform="translate(43.5555419921875 177.55557250976562) rotate(0 0.8889007568359375 21.222213745117188)" stroke="none"><path fill="#000000" d="M 2.62,0.25 Q 2.62,0.25 2.45,2.23 2.27,4.21 2.25,6.47 2.23,8.73 2.26,11.04 2.29,13.35 2.50,15.12 2.70,16.90 2.80,18.61 2.90,20.32 2.94,21.95 2.98,23.58 3.06,24.98 3.14,26.38 3.24,27.95 3.33,29.51 3.44,30.93 3.54,32.35 3.71,33.52 3.87,34.68 4.07,36.10 4.27,37.53 4.00,39.83 3.72,42.13 3.72,42.34 3.71,42.55 3.63,42.75 3.55,42.95 3.42,43.11 3.28,43.28 3.10,43.39 2.92,43.50 2.71,43.55 2.51,43.60 2.30,43.57 2.08,43.55 1.89,43.47 1.70,43.38 1.54,43.24 1.38,43.09 1.28,42.90 1.18,42.72 1.14,42.51 1.11,42.30 1.14,42.09 1.17,41.88 1.27,41.69 1.37,41.50 1.52,41.35 1.67,41.21 1.86,41.11 2.06,41.02 2.27,41.00 2.48,40.97 2.69,41.02 2.89,41.06 3.08,41.17 3.26,41.27 3.40,41.43 3.54,41.59 3.62,41.79 3.70,41.99 3.71,42.20 3.73,42.41 3.67,42.62 3.62,42.82 3.50,43.00 3.38,43.18 3.22,43.31 3.05,43.44 2.85,43.51 2.65,43.58 2.44,43.58 2.22,43.58 2.02,43.52 1.82,43.45 1.65,43.33 1.48,43.20 1.36,43.02 1.24,42.85 1.18,42.65 1.12,42.44 1.12,42.44 1.12,42.44 0.12,40.35 -0.87,38.25 -1.07,36.82 -1.27,35.39 -1.45,34.06 -1.63,32.73 -1.74,31.28 -1.85,29.83 -1.94,28.25 -2.04,26.67 -2.12,25.19 -2.21,23.71 -2.24,22.16 -2.28,20.61 -2.37,19.05 -2.45,17.49 -2.68,15.48 -2.90,13.47 -2.98,11.08 -3.07,8.69 -3.05,6.19 -3.04,3.70 -2.83,1.72 -2.62,-0.25 -2.55,-0.56 -2.48,-0.87 -2.34,-1.16 -2.20,-1.44 -2.00,-1.68 -1.79,-1.93 -1.54,-2.11 -1.28,-2.30 -0.98,-2.42 -0.69,-2.54 -0.37,-2.59 -0.06,-2.63 0.25,-2.60 0.56,-2.57 0.86,-2.47 1.16,-2.36 1.43,-2.19 1.70,-2.01 1.91,-1.78 2.13,-1.55 2.28,-1.27 2.44,-0.99 2.52,-0.68 2.61,-0.38 2.61,-0.06 2.62,0.25 2.62,0.25 L 2.62,0.25 Z"/></g><g transform="translate(47.111114501953125 224.4444580078125) rotate(0 11.333328247070312 -10.333343505859375)" stroke="none"><path fill="#000000" d="M 0.44,0.89 Q 0.44,0.89 -0.28,1.44 -1.02,1.99 -1.77,2.00 -2.52,2.02 -3.07,0.96 -3.63,-0.09 -3.36,-0.56 -3.10,-1.03 -2.39,-1.76 -1.67,-2.50 -0.79,-3.25 0.08,-4.00 1.03,-4.97 1.98,-5.93 2.57,-6.59 3.17,-7.25 4.43,-8.42 5.69,-9.59 6.69,-10.41 7.68,-11.23 8.72,-11.93 9.76,-12.63 10.76,-13.29 11.75,-13.96 12.96,-14.70 14.17,-15.44 14.99,-16.09 15.82,-16.74 16.50,-17.48 17.18,-18.21 17.70,-18.75 18.22,-19.29 18.69,-19.78 19.16,-20.26 19.39,-20.56 19.62,-20.86 19.76,-20.96 19.89,-21.07 20.05,-21.14 20.20,-21.21 20.37,-21.24 20.54,-21.27 20.71,-21.26 20.88,-21.25 21.04,-21.20 21.20,-21.15 21.35,-21.07 21.49,-20.98 21.61,-20.86 21.73,-20.74 21.82,-20.59 21.91,-20.45 21.96,-20.29 22.01,-20.12 22.03,-19.95 22.04,-19.78 22.01,-19.62 21.98,-19.45 21.91,-19.29 21.84,-19.14 21.73,-19.00 21.63,-18.87 21.07,-18.65 20.50,-18.43 19.63,-17.87 18.76,-17.31 17.94,-16.65 17.12,-15.98 15.89,-15.02 14.67,-14.06 13.22,-13.06 11.78,-12.06 10.48,-11.13 9.19,-10.21 7.95,-9.26 6.72,-8.31 5.82,-7.33 4.92,-6.36 3.79,-5.45 2.65,-4.55 1.83,-3.88 1.01,-3.22 0.39,-2.74 -0.22,-2.25 -0.71,-1.69 -1.20,-1.12 -1.36,-0.93 -1.52,-0.74 -1.64,-0.62 -1.76,-0.50 -1.91,-0.41 -2.05,-0.32 -2.22,-0.26 -2.38,-0.21 -2.55,-0.20 -2.72,-0.19 -2.89,-0.22 -3.06,-0.25 -3.22,-0.32 -3.37,-0.39 -3.51,-0.49 -3.64,-0.60 -3.75,-0.73 -3.86,-0.87 -3.93,-1.02 -4.00,-1.18 -4.03,-1.34 -4.06,-1.51 -4.05,-1.68 -4.05,-1.86 -4.00,-2.02 -3.95,-2.18 -3.86,-2.33 -3.77,-2.48 -3.22,-2.77 -2.67,-3.06 -2.26,-3.46 -1.86,-3.87 -0.64,-4.70 0.57,-5.54 2.03,-6.79 3.49,-8.04 5.06,-9.26 6.63,-10.47 8.37,-11.81 10.11,-13.15 12.01,-14.27 13.90,-15.40 15.51,-16.59 17.13,-17.78 18.38,-18.80 19.64,-19.81 20.81,-20.61 21.97,-21.41 22.73,-21.88 23.48,-22.35 23.92,-22.64 24.36,-22.93 24.51,-23.01 24.67,-23.09 24.85,-23.13 25.02,-23.17 25.20,-23.17 25.38,-23.17 25.55,-23.13 25.72,-23.08 25.88,-23.00 26.03,-22.92 26.17,-22.80 26.30,-22.68 26.40,-22.53 26.50,-22.38 26.56,-22.22 26.62,-22.05 26.64,-21.87 26.66,-21.70 26.64,-21.52 26.62,-21.34 26.55,-21.18 26.49,-21.01 26.39,-20.87 26.29,-20.72 26.15,-20.60 26.02,-20.49 24.74,-19.70 23.46,-18.92 22.28,-18.12 21.09,-17.33 19.68,-16.34 18.28,-15.36 16.86,-14.31 15.44,-13.26 14.21,-12.47 12.99,-11.68 11.87,-10.88 10.76,-10.08 9.89,-9.23 9.02,-8.39 8.19,-7.85 7.36,-7.30 6.81,-6.98 6.25,-6.66 4.46,-4.54 2.67,-2.43 2.60,-2.35 2.52,-2.28 2.42,-2.24 2.33,-2.19 2.22,-2.18 2.11,-2.17 2.01,-2.19 1.91,-2.21 1.82,-2.27 1.73,-2.32 1.66,-2.41 1.59,-2.49 1.55,-2.59 1.51,-2.68 1.50,-2.79 1.50,-2.90 1.53,-3.00 1.56,-3.10 1.61,-3.19 1.67,-3.28 1.76,-3.34 1.84,-3.40 1.94,-3.44 2.05,-3.47 2.15,-3.47 2.26,-3.47 2.36,-3.44 2.46,-3.40 2.54,-3.34 2.63,-3.28 2.69,-3.19 2.75,-3.10 2.78,-3.00 2.80,-2.89 2.80,-2.79 2.79,-2.68 2.75,-2.58 2.71,-2.49 2.64,-2.40 2.58,-2.32 2.48,-2.27 2.39,-2.21 2.29,-2.19 2.19,-2.17 2.08,-2.18 1.97,-2.19 1.88,-2.24 1.78,-2.28 1.70,-2.35 1.63,-2.43 1.58,-2.52 1.53,-2.62 1.51,-2.72 1.49,-2.83 1.51,-2.93 1.53,-3.03 1.58,-3.13 1.63,-3.22 1.63,-3.22 1.63,-3.22 3.31,-5.52 4.98,-7.82 5.42,-8.58 5.85,-9.35 6.46,-9.85 7.06,-10.35 8.06,-11.37 9.05,-12.39 10.22,-13.27 11.39,-14.14 12.54,-14.89 13.68,-15.64 15.13,-16.71 16.58,-17.78 18.02,-18.78 19.45,-19.78 20.74,-20.64 22.04,-21.51 22.77,-21.90 23.50,-22.29 23.93,-22.61 24.36,-22.93 24.51,-23.01 24.67,-23.09 24.85,-23.13 25.02,-23.17 25.20,-23.17 25.38,-23.17 25.55,-23.13 25.72,-23.08 25.88,-23.00 26.03,-22.92 26.17,-22.80 26.30,-22.68 26.40,-22.53 26.50,-22.38 26.56,-22.22 26.62,-22.05 26.64,-21.87 26.66,-21.70 26.64,-21.52 26.62,-21.34 26.55,-21.18 26.49,-21.01 26.39,-20.87 26.29,-20.72 26.15,-20.60 26.02,-20.49 25.51,-20.18 25.01,-19.87 24.30,-19.44 23.59,-19.01 22.52,-18.29 21.44,-17.57 20.13,-16.52 18.81,-15.48 17.08,-14.21 15.35,-12.95 13.60,-11.92 11.84,-10.89 10.10,-9.56 8.36,-8.22 6.85,-7.05 5.33,-5.89 3.75,-4.54 2.17,-3.20 1.05,-2.43 -0.07,-1.66 -0.80,-1.20 -1.52,-0.74 -1.64,-0.62 -1.76,-0.50 -1.91,-0.41 -2.05,-0.32 -2.22,-0.26 -2.38,-0.21 -2.55,-0.20 -2.72,-0.19 -2.89,-0.22 -3.06,-0.25 -3.22,-0.32 -3.37,-0.39 -3.51,-0.49 -3.64,-0.60 -3.75,-0.73 -3.86,-0.87 -3.93,-1.02 -4.00,-1.18 -4.03,-1.34 -4.06,-1.51 -4.05,-1.68 -4.05,-1.85 -4.00,-2.02 -3.95,-2.18 -3.86,-2.33 -3.77,-2.48 -3.33,-3.02 -2.88,-3.57 -2.43,-4.03 -1.97,-4.48 -1.37,-4.95 -0.77,-5.43 0.06,-6.10 0.90,-6.78 1.88,-7.54 2.86,-8.30 3.92,-9.42 4.98,-10.55 6.26,-11.53 7.54,-12.52 8.85,-13.45 10.17,-14.38 11.55,-15.34 12.93,-16.29 14.14,-17.24 15.35,-18.18 16.35,-18.97 17.35,-19.77 18.49,-20.31 19.62,-20.86 19.76,-20.96 19.89,-21.07 20.05,-21.14 20.20,-21.21 20.37,-21.24 20.54,-21.27 20.71,-21.26 20.88,-21.25 21.04,-21.20 21.20,-21.15 21.35,-21.07 21.49,-20.98 21.61,-20.86 21.73,-20.74 21.82,-20.59 21.91,-20.45 21.96,-20.29 22.01,-20.12 22.03,-19.95 22.04,-19.78 22.01,-19.62 21.98,-19.45 21.91,-19.29 21.84,-19.14 21.73,-19.00 21.63,-18.87 21.40,-18.58 21.17,-18.29 20.71,-17.81 20.25,-17.34 19.73,-16.81 19.22,-16.28 18.39,-15.41 17.55,-14.53 16.59,-13.79 15.64,-13.06 14.47,-12.34 13.30,-11.63 12.31,-10.97 11.31,-10.30 10.39,-9.69 9.46,-9.07 8.52,-8.30 7.58,-7.53 6.40,-6.46 5.23,-5.39 4.59,-4.68 3.95,-3.98 2.91,-2.93 1.87,-1.88 1.06,-1.21 0.26,-0.54 -0.56,0.33 -1.40,1.20 -1.72,0.37 -2.03,-0.46 -1.24,-0.67 -0.44,-0.89 -0.33,-0.93 -0.22,-0.97 -0.10,-0.98 0.01,-1.00 0.13,-0.98 0.25,-0.96 0.37,-0.92 0.48,-0.87 0.58,-0.80 0.67,-0.73 0.75,-0.64 0.83,-0.55 0.88,-0.44 0.94,-0.33 0.97,-0.21 0.99,-0.10 0.99,0.01 0.99,0.14 0.96,0.25 0.92,0.37 0.87,0.47 0.81,0.58 0.73,0.67 0.64,0.76 0.54,0.82 0.44,0.89 0.44,0.89 L 0.44,0.89 Z"/></g><g transform="translate(67.77777099609375 209.33334350585938) rotate(0 0.5555572509765625 -19.333328247070312)" stroke="none"><path fill="#000000" d="M -0.94,-0.19 Q -0.94,-0.19 -0.88,-1.45 -0.81,-2.70 -0.74,-3.78 -0.67,-4.86 -0.76,-6.01 -0.85,-7.16 -0.89,-8.16 -0.92,-9.16 -0.94,-11.00 -0.96,-12.84 -0.97,-14.58 -0.98,-16.32 -0.85,-18.13 -0.73,-19.94 -0.54,-21.67 -0.36,-23.40 -0.22,-25.26 -0.09,-27.11 0.03,-28.86 0.15,-30.61 0.08,-31.97 0.00,-33.33 -0.01,-34.48 -0.04,-35.62 -0.16,-36.24 -0.27,-36.86 0.31,-36.91 0.91,-36.96 0.83,-35.52 0.75,-34.08 0.73,-32.65 0.71,-31.23 0.76,-29.82 0.82,-28.41 0.84,-26.95 0.86,-25.49 0.81,-23.88 0.76,-22.27 0.80,-20.62 0.84,-18.97 0.86,-17.16 0.88,-15.34 1.01,-13.40 1.14,-11.46 1.20,-9.89 1.26,-8.33 1.35,-7.05 1.44,-5.78 1.54,-4.87 1.64,-3.97 1.80,-3.34 1.95,-2.70 2.03,-2.33 2.10,-1.97 2.12,-1.80 2.14,-1.64 2.11,-1.48 2.09,-1.32 2.03,-1.16 1.98,-1.01 1.88,-0.88 1.79,-0.74 1.66,-0.63 1.54,-0.53 1.39,-0.45 1.25,-0.38 1.09,-0.34 0.93,-0.30 0.77,-0.30 0.60,-0.30 0.44,-0.34 0.28,-0.38 0.14,-0.46 0.00,-0.54 -0.12,-0.65 -0.24,-0.76 -0.33,-0.89 -0.42,-1.03 -0.48,-1.18 -0.54,-1.34 -0.37,-1.98 -0.21,-2.62 -0.01,-4.36 0.18,-6.09 0.22,-7.50 0.25,-8.91 0.23,-10.45 0.22,-12.00 0.08,-13.95 -0.04,-15.90 -0.05,-16.01 -0.05,-16.11 -0.01,-16.22 0.01,-16.32 0.07,-16.40 0.14,-16.49 0.22,-16.55 0.31,-16.61 0.41,-16.64 0.51,-16.67 0.62,-16.66 0.73,-16.66 0.83,-16.62 0.92,-16.58 1.01,-16.52 1.09,-16.45 1.14,-16.36 1.20,-16.27 1.22,-16.16 1.25,-16.06 1.24,-15.96 1.23,-15.85 1.18,-15.75 1.14,-15.66 1.07,-15.58 1.00,-15.50 0.90,-15.45 0.81,-15.40 0.71,-15.38 0.60,-15.36 0.50,-15.38 0.39,-15.39 0.30,-15.44 0.20,-15.49 0.13,-15.57 0.05,-15.64 0.01,-15.74 -0.03,-15.83 -0.04,-15.94 -0.05,-16.04 -0.03,-16.15 -0.01,-16.25 0.03,-16.34 0.09,-16.44 0.17,-16.51 0.25,-16.58 0.35,-16.62 0.44,-16.66 0.55,-16.66 0.66,-16.67 0.76,-16.64 0.86,-16.62 0.95,-16.56 1.04,-16.50 1.10,-16.42 1.17,-16.33 1.20,-16.23 1.24,-16.13 1.24,-16.13 1.24,-16.13 1.80,-14.15 2.36,-12.17 2.59,-10.53 2.82,-8.89 2.84,-7.31 2.86,-5.73 2.68,-4.46 2.51,-3.20 2.31,-2.58 2.10,-1.97 2.12,-1.80 2.14,-1.64 2.11,-1.48 2.09,-1.32 2.03,-1.16 1.98,-1.01 1.88,-0.88 1.79,-0.74 1.66,-0.63 1.54,-0.53 1.39,-0.45 1.25,-0.38 1.09,-0.34 0.93,-0.30 0.77,-0.30 0.60,-0.30 0.44,-0.34 0.29,-0.38 0.14,-0.46 0.00,-0.54 -0.12,-0.65 -0.24,-0.76 -0.33,-0.89 -0.42,-1.03 -0.48,-1.18 -0.54,-1.34 -0.61,-1.70 -0.68,-2.07 -0.87,-2.87 -1.05,-3.67 -1.15,-4.63 -1.25,-5.60 -1.34,-6.91 -1.43,-8.23 -1.49,-9.75 -1.54,-11.28 -1.68,-13.30 -1.82,-15.32 -1.83,-17.11 -1.85,-18.91 -1.89,-20.64 -1.93,-22.37 -1.88,-23.90 -1.82,-25.44 -1.84,-26.87 -1.87,-28.30 -1.92,-29.79 -1.97,-31.27 -1.95,-32.74 -1.93,-34.20 -1.86,-35.46 -1.79,-36.72 -1.58,-37.54 -1.37,-38.36 -0.96,-38.81 -0.55,-39.25 0.00,-39.33 0.57,-39.40 1.24,-38.99 1.91,-38.59 2.19,-38.00 2.47,-37.40 2.63,-36.55 2.80,-35.71 2.84,-34.59 2.88,-33.48 2.95,-31.95 3.03,-30.41 2.90,-28.65 2.78,-26.89 2.64,-25.00 2.49,-23.10 2.31,-21.42 2.13,-19.74 2.01,-18.03 1.89,-16.33 1.89,-14.60 1.90,-12.87 1.90,-11.06 1.91,-9.26 1.95,-8.30 1.98,-7.34 2.05,-5.97 2.12,-4.60 1.98,-3.37 1.84,-2.14 1.39,-0.97 0.94,0.19 0.90,0.30 0.86,0.41 0.80,0.51 0.74,0.61 0.65,0.69 0.57,0.77 0.47,0.83 0.37,0.89 0.26,0.92 0.14,0.95 0.03,0.95 -0.08,0.96 -0.19,0.93 -0.31,0.91 -0.41,0.86 -0.52,0.81 -0.61,0.73 -0.70,0.66 -0.76,0.57 -0.83,0.47 -0.88,0.37 -0.92,0.26 -0.94,0.14 -0.96,0.03 -0.95,-0.08 -0.94,-0.19 -0.94,-0.19 L -0.94,-0.19 Z"/></g><g transform="translate(44.888885498046875 183.33334350585938) rotate(0 9.888885498046875 -8.22222900390625)" stroke="none"><path fill="#000000" d="M 0.76,0.57 Q 0.76,0.57 0.76,0.97 0.76,1.37 0.64,1.50 0.52,1.62 0.38,1.71 0.23,1.81 0.07,1.86 -0.09,1.92 -0.26,1.93 -0.43,1.94 -0.61,1.92 -0.78,1.89 -0.94,1.82 -1.10,1.75 -1.24,1.65 -1.37,1.55 -1.48,1.41 -1.59,1.28 -1.67,1.12 -1.74,0.96 -1.78,0.79 -1.81,0.62 -1.81,0.45 -1.80,0.28 -1.75,0.11 -1.70,-0.05 -1.62,-0.20 -1.53,-0.35 -0.98,-0.83 -0.43,-1.32 0.25,-1.76 0.94,-2.21 1.99,-2.83 3.04,-3.46 4.02,-4.30 5.01,-5.13 5.87,-5.99 6.73,-6.84 8.08,-7.86 9.44,-8.88 11.55,-10.61 13.67,-12.34 15.00,-13.84 16.34,-15.34 17.20,-16.27 18.07,-17.21 18.56,-17.73 19.06,-18.26 19.12,-18.37 19.19,-18.48 19.33,-18.60 19.48,-18.72 19.65,-18.80 19.82,-18.89 20.00,-18.92 20.18,-18.96 20.37,-18.96 20.56,-18.95 20.74,-18.90 20.92,-18.85 21.08,-18.76 21.24,-18.66 21.38,-18.53 21.52,-18.41 21.62,-18.25 21.72,-18.09 21.78,-17.91 21.84,-17.73 21.86,-17.55 21.87,-17.36 21.85,-17.18 21.82,-16.99 21.74,-16.82 21.67,-16.64 21.56,-16.49 21.45,-16.34 20.74,-15.61 20.03,-14.88 18.98,-14.11 17.92,-13.34 16.60,-12.40 15.29,-11.45 13.78,-10.35 12.27,-9.25 10.89,-8.11 9.52,-6.97 8.19,-5.73 6.85,-4.50 5.75,-3.50 4.66,-2.51 3.82,-1.72 2.99,-0.93 2.50,-0.47 2.02,-0.00 1.48,0.57 0.94,1.16 0.76,1.37 0.58,1.57 0.44,1.70 0.31,1.83 0.15,1.93 -0.01,2.02 -0.19,2.07 -0.37,2.12 -0.56,2.13 -0.75,2.14 -0.93,2.10 -1.12,2.06 -1.29,1.98 -1.46,1.90 -1.60,1.78 -1.75,1.66 -1.86,1.51 -1.97,1.36 -2.05,1.19 -2.12,1.02 -2.15,0.83 -2.18,0.64 -2.17,0.46 -2.15,0.27 -2.09,0.09 -2.03,-0.08 -1.93,-0.24 -1.83,-0.40 -0.56,-1.38 0.70,-2.37 2.08,-3.38 3.46,-4.40 4.89,-5.68 6.31,-6.97 7.40,-7.92 8.48,-8.88 9.48,-9.54 10.47,-10.20 11.43,-10.41 12.38,-10.61 12.07,-10.61 11.75,-10.60 11.93,-10.65 12.11,-10.70 12.29,-10.71 12.48,-10.72 12.66,-10.68 12.84,-10.64 13.01,-10.56 13.18,-10.48 13.32,-10.36 13.47,-10.24 13.58,-10.09 13.69,-9.94 13.76,-9.77 13.83,-9.60 13.86,-9.42 13.89,-9.23 13.87,-9.05 13.86,-8.86 13.80,-8.68 13.74,-8.51 13.64,-8.35 13.54,-8.19 13.40,-8.07 13.27,-7.94 13.11,-7.84 12.95,-7.75 11.85,-7.15 10.76,-6.55 9.50,-5.53 8.24,-4.50 5.92,-3.10 3.61,-1.70 3.51,-1.65 3.42,-1.61 3.31,-1.59 3.20,-1.58 3.10,-1.60 3.00,-1.62 2.90,-1.68 2.81,-1.73 2.74,-1.81 2.67,-1.89 2.63,-1.99 2.59,-2.09 2.59,-2.20 2.58,-2.30 2.61,-2.40 2.63,-2.51 2.69,-2.60 2.75,-2.68 2.84,-2.75 2.92,-2.81 3.02,-2.85 3.12,-2.88 3.23,-2.88 3.33,-2.89 3.43,-2.85 3.54,-2.82 3.62,-2.76 3.71,-2.69 3.77,-2.61 3.83,-2.52 3.86,-2.42 3.89,-2.31 3.88,-2.21 3.88,-2.10 3.84,-2.00 3.80,-1.90 3.73,-1.82 3.66,-1.74 3.57,-1.68 3.48,-1.63 3.38,-1.61 3.28,-1.58 3.17,-1.59 3.06,-1.60 2.97,-1.65 2.87,-1.69 2.79,-1.76 2.71,-1.83 2.66,-1.93 2.61,-2.02 2.59,-2.13 2.58,-2.23 2.59,-2.34 2.61,-2.44 2.66,-2.53 2.71,-2.63 2.78,-2.70 2.86,-2.78 2.86,-2.78 2.86,-2.78 4.93,-4.41 6.99,-6.04 8.22,-7.04 9.45,-8.04 10.20,-8.96 10.94,-9.88 11.34,-10.24 11.75,-10.60 11.93,-10.65 12.10,-10.70 12.29,-10.71 12.48,-10.72 12.66,-10.68 12.84,-10.64 13.01,-10.56 13.18,-10.48 13.32,-10.36 13.46,-10.24 13.58,-10.09 13.69,-9.94 13.76,-9.77 13.83,-9.60 13.86,-9.42 13.89,-9.23 13.87,-9.05 13.86,-8.86 13.80,-8.68 13.74,-8.51 13.64,-8.35 13.54,-8.19 13.40,-8.07 13.27,-7.94 13.11,-7.85 12.95,-7.75 12.56,-7.67 12.18,-7.59 11.36,-7.06 10.54,-6.53 9.47,-5.59 8.39,-4.64 6.85,-3.27 5.31,-1.89 3.90,-0.85 2.49,0.17 1.54,0.87 0.58,1.57 0.44,1.70 0.31,1.83 0.15,1.93 -0.01,2.02 -0.19,2.07 -0.37,2.12 -0.56,2.13 -0.75,2.14 -0.93,2.10 -1.12,2.06 -1.29,1.98 -1.46,1.90 -1.60,1.78 -1.75,1.66 -1.86,1.51 -1.97,1.36 -2.05,1.19 -2.12,1.02 -2.15,0.83 -2.18,0.64 -2.17,0.46 -2.15,0.27 -2.09,0.09 -2.03,-0.08 -1.93,-0.24 -1.83,-0.40 -1.65,-0.60 -1.47,-0.81 -0.80,-1.53 -0.13,-2.26 0.35,-2.73 0.84,-3.20 1.70,-4.02 2.56,-4.83 3.65,-5.81 4.73,-6.79 6.13,-8.08 7.53,-9.37 8.98,-10.57 10.43,-11.78 11.95,-12.88 13.47,-13.99 14.78,-14.93 16.09,-15.87 17.01,-16.52 17.92,-17.18 18.55,-17.83 19.19,-18.48 19.33,-18.60 19.48,-18.72 19.65,-18.80 19.82,-18.89 20.00,-18.92 20.18,-18.96 20.37,-18.96 20.56,-18.95 20.74,-18.90 20.92,-18.85 21.08,-18.76 21.24,-18.66 21.38,-18.53 21.52,-18.41 21.62,-18.25 21.72,-18.09 21.78,-17.91 21.84,-17.73 21.86,-17.55 21.87,-17.36 21.85,-17.18 21.82,-16.99 21.74,-16.82 21.67,-16.64 21.56,-16.49 21.45,-16.34 21.35,-16.27 21.25,-16.19 20.76,-15.68 20.27,-15.16 19.41,-14.25 18.56,-13.33 17.06,-11.69 15.55,-10.04 13.38,-8.27 11.21,-6.51 10.01,-5.62 8.81,-4.73 7.86,-3.80 6.91,-2.86 5.73,-1.89 4.56,-0.93 3.54,-0.32 2.52,0.28 1.64,0.82 0.76,1.37 0.64,1.50 0.52,1.62 0.38,1.71 0.23,1.81 0.07,1.86 -0.09,1.92 -0.26,1.93 -0.43,1.94 -0.61,1.92 -0.78,1.89 -0.94,1.82 -1.10,1.75 -1.24,1.65 -1.37,1.55 -1.48,1.41 -1.59,1.28 -1.67,1.12 -1.74,0.96 -1.78,0.79 -1.81,0.62 -1.81,0.45 -1.80,0.28 -1.75,0.11 -1.70,-0.05 -1.62,-0.20 -1.53,-0.35 -1.15,-0.46 -0.76,-0.57 -0.68,-0.65 -0.60,-0.74 -0.51,-0.80 -0.41,-0.86 -0.30,-0.90 -0.19,-0.94 -0.07,-0.94 0.03,-0.95 0.15,-0.94 0.26,-0.92 0.37,-0.87 0.47,-0.83 0.57,-0.76 0.66,-0.69 0.73,-0.60 0.81,-0.51 0.86,-0.40 0.91,-0.30 0.93,-0.19 0.95,-0.07 0.95,0.03 0.94,0.15 0.91,0.26 0.88,0.37 0.82,0.47 0.76,0.57 0.76,0.57 L 0.76,0.57 Z"/></g><g transform="translate(36.888885498046875 180) rotate(0 -12.555557250976562 -1.3333282470703125)" stroke="none"><path fill="#000000" d="M -0.55,-0.48 Q -0.55,-0.48 -0.33,-1.18 -0.10,-1.87 0.06,-1.36 0.23,-0.85 -0.80,-0.57 -1.84,-0.29 -3.03,-0.30 -4.23,-0.30 -5.63,-0.30 -7.03,-0.30 -8.33,-0.30 -9.63,-0.30 -10.69,-0.30 -11.76,-0.30 -12.53,-0.30 -13.30,-0.30 -13.95,-0.30 -14.59,-0.30 -15.32,-0.24 -16.05,-0.18 -16.93,-0.15 -17.81,-0.12 -18.76,-0.11 -19.71,-0.09 -20.62,-0.09 -21.53,-0.08 -22.24,-0.08 -22.95,-0.08 -23.78,-0.08 -24.61,-0.07 -25.06,-0.07 -25.51,-0.08 -25.68,-0.10 -25.86,-0.12 -26.03,-0.18 -26.19,-0.24 -26.34,-0.34 -26.49,-0.45 -26.60,-0.58 -26.72,-0.71 -26.80,-0.87 -26.89,-1.03 -26.93,-1.20 -26.97,-1.37 -26.97,-1.55 -26.97,-1.73 -26.93,-1.90 -26.89,-2.07 -26.81,-2.23 -26.72,-2.39 -26.61,-2.52 -26.49,-2.65 -26.34,-2.76 -26.19,-2.86 -26.03,-2.92 -25.86,-2.98 -25.69,-3.00 -25.51,-3.03 -24.66,-3.16 -23.82,-3.29 -22.71,-3.35 -21.61,-3.41 -20.44,-3.44 -19.27,-3.46 -17.95,-3.47 -16.62,-3.48 -15.33,-3.55 -14.03,-3.62 -12.13,-3.72 -10.22,-3.82 -8.75,-3.87 -7.29,-3.91 -6.11,-3.87 -4.93,-3.82 -3.69,-3.52 -2.46,-3.21 -2.54,-3.11 -2.62,-3.01 -2.44,-2.96 -2.26,-2.90 -2.10,-2.81 -1.94,-2.72 -1.81,-2.59 -1.67,-2.46 -1.57,-2.31 -1.47,-2.15 -1.41,-1.97 -1.35,-1.80 -1.34,-1.61 -1.32,-1.42 -1.35,-1.24 -1.38,-1.06 -1.45,-0.89 -1.53,-0.71 -1.64,-0.56 -1.75,-0.42 -1.89,-0.30 -2.04,-0.18 -2.20,-0.10 -2.37,-0.02 -2.55,0.01 -2.74,0.05 -2.92,0.04 -3.11,0.03 -5.09,0.13 -7.08,0.23 -8.81,0.22 -10.54,0.21 -12.23,0.08 -13.93,-0.04 -15.27,-0.16 -16.61,-0.28 -17.96,-0.33 -19.32,-0.38 -20.52,-0.48 -21.71,-0.58 -22.62,-0.72 -23.52,-0.86 -25.03,-1.42 -26.55,-1.98 -26.65,-2.00 -26.75,-2.03 -26.84,-2.08 -26.93,-2.14 -27.00,-2.22 -27.07,-2.31 -27.10,-2.41 -27.14,-2.50 -27.15,-2.61 -27.15,-2.72 -27.12,-2.82 -27.09,-2.92 -27.03,-3.01 -26.97,-3.09 -26.88,-3.16 -26.79,-3.22 -26.69,-3.25 -26.59,-3.28 -26.49,-3.28 -26.38,-3.28 -26.28,-3.24 -26.18,-3.21 -26.10,-3.14 -26.01,-3.08 -25.95,-2.99 -25.90,-2.90 -25.87,-2.79 -25.84,-2.69 -25.85,-2.59 -25.86,-2.48 -25.90,-2.38 -25.94,-2.28 -26.01,-2.20 -26.08,-2.12 -26.17,-2.07 -26.27,-2.02 -26.37,-2.00 -26.48,-1.98 -26.58,-1.99 -26.69,-2.00 -26.78,-2.05 -26.88,-2.10 -26.95,-2.17 -27.03,-2.25 -27.08,-2.34 -27.12,-2.44 -27.14,-2.54 -27.15,-2.65 -27.14,-2.75 -27.12,-2.86 -27.06,-2.95 -27.01,-3.04 -26.93,-3.11 -26.86,-3.18 -26.76,-3.23 -26.66,-3.27 -26.56,-3.28 -26.45,-3.29 -26.45,-3.29 -26.45,-3.29 -24.82,-3.50 -23.20,-3.72 -22.34,-3.66 -21.49,-3.60 -20.35,-3.53 -19.21,-3.46 -17.77,-3.41 -16.33,-3.35 -15.01,-3.23 -13.68,-3.11 -12.10,-2.99 -10.53,-2.86 -8.78,-2.85 -7.04,-2.84 -5.77,-2.82 -4.51,-2.79 -3.57,-2.90 -2.62,-3.01 -2.44,-2.96 -2.26,-2.90 -2.10,-2.81 -1.94,-2.72 -1.81,-2.59 -1.67,-2.46 -1.57,-2.31 -1.47,-2.15 -1.41,-1.97 -1.35,-1.80 -1.34,-1.61 -1.32,-1.42 -1.35,-1.24 -1.38,-1.06 -1.45,-0.89 -1.53,-0.71 -1.64,-0.57 -1.75,-0.42 -1.89,-0.30 -2.04,-0.18 -2.20,-0.10 -2.37,-0.02 -2.55,0.01 -2.74,0.05 -2.92,0.04 -3.11,0.03 -3.47,-0.36 -3.82,-0.77 -4.44,-0.76 -5.06,-0.75 -6.13,-0.80 -7.21,-0.85 -8.64,-0.82 -10.07,-0.78 -11.97,-0.70 -13.88,-0.61 -15.24,-0.54 -16.60,-0.48 -17.91,-0.47 -19.21,-0.46 -20.33,-0.44 -21.46,-0.42 -22.44,-0.37 -23.42,-0.33 -24.46,-0.20 -25.51,-0.08 -25.68,-0.10 -25.86,-0.12 -26.03,-0.18 -26.19,-0.24 -26.34,-0.34 -26.49,-0.45 -26.60,-0.58 -26.72,-0.71 -26.80,-0.87 -26.89,-1.03 -26.93,-1.20 -26.97,-1.37 -26.97,-1.55 -26.97,-1.73 -26.93,-1.90 -26.89,-2.07 -26.81,-2.23 -26.72,-2.39 -26.61,-2.52 -26.49,-2.65 -26.34,-2.76 -26.19,-2.86 -26.03,-2.92 -25.86,-2.98 -25.69,-3.00 -25.51,-3.03 -25.06,-3.03 -24.61,-3.03 -23.78,-3.03 -22.96,-3.03 -22.25,-3.03 -21.55,-3.03 -20.65,-3.04 -19.74,-3.04 -18.82,-3.05 -17.90,-3.06 -17.09,-3.09 -16.29,-3.11 -15.44,-3.18 -14.59,-3.24 -13.95,-3.24 -13.30,-3.24 -12.53,-3.24 -11.76,-3.24 -10.69,-3.24 -9.63,-3.24 -8.33,-3.24 -7.03,-3.24 -5.62,-3.24 -4.22,-3.23 -3.01,-3.23 -1.80,-3.22 -0.91,-3.21 -0.02,-3.19 1.01,-2.75 2.06,-2.31 1.97,-1.24 1.89,-0.17 1.22,0.15 0.55,0.48 0.49,0.54 0.42,0.60 0.34,0.65 0.26,0.69 0.18,0.71 0.09,0.73 0.00,0.73 -0.08,0.73 -0.17,0.71 -0.25,0.69 -0.33,0.65 -0.41,0.61 -0.48,0.55 -0.55,0.49 -0.60,0.42 -0.65,0.34 -0.68,0.26 -0.72,0.18 -0.73,0.09 -0.74,0.00 -0.73,-0.08 -0.72,-0.17 -0.69,-0.25 -0.65,-0.34 -0.60,-0.41 -0.55,-0.48 -0.55,-0.48 L -0.55,-0.48 Z"/></g><g transform="translate(14.444427490234375 178.4444580078125) rotate(0 10.4444580078125 -11.333343505859375)" stroke="none"><path fill="#000000" d="M -0.58,-0.69 Q -0.58,-0.69 0.08,-1.57 0.76,-2.46 1.19,-2.91 1.62,-3.35 2.19,-4.16 2.76,-4.97 3.20,-5.62 3.65,-6.27 4.34,-7.33 5.03,-8.39 5.80,-9.39 6.58,-10.40 7.43,-11.40 8.27,-12.41 9.14,-13.77 10.01,-15.14 11.25,-16.54 12.48,-17.95 13.73,-18.88 14.99,-19.81 16.09,-20.65 17.19,-21.49 17.89,-22.09 18.59,-22.69 18.97,-23.02 19.34,-23.34 19.50,-23.44 19.65,-23.54 19.82,-23.61 20.00,-23.67 20.18,-23.69 20.36,-23.70 20.55,-23.68 20.73,-23.65 20.90,-23.58 21.07,-23.51 21.22,-23.41 21.37,-23.30 21.49,-23.16 21.60,-23.02 21.69,-22.85 21.77,-22.69 21.81,-22.51 21.85,-22.33 21.84,-22.14 21.84,-21.96 21.79,-21.78 21.74,-21.61 21.66,-21.44 21.57,-21.28 21.44,-21.15 21.32,-21.01 19.68,-20.28 18.05,-19.55 16.56,-18.69 15.06,-17.82 13.57,-16.94 12.09,-16.06 10.94,-14.86 9.80,-13.66 8.84,-12.46 7.88,-11.25 7.00,-10.15 6.12,-9.04 5.43,-8.14 4.73,-7.23 4.13,-6.55 3.53,-5.87 2.98,-5.32 2.42,-4.77 1.87,-3.42 1.31,-2.06 1.26,-1.96 1.22,-1.87 1.14,-1.79 1.07,-1.72 0.97,-1.67 0.88,-1.62 0.77,-1.61 0.67,-1.59 0.56,-1.61 0.46,-1.63 0.36,-1.69 0.27,-1.74 0.20,-1.82 0.13,-1.90 0.09,-1.99 0.04,-2.09 0.04,-2.20 0.03,-2.30 0.05,-2.41 0.08,-2.51 0.13,-2.60 0.19,-2.69 0.27,-2.75 0.36,-2.82 0.46,-2.86 0.56,-2.90 0.66,-2.90 0.77,-2.90 0.87,-2.87 0.97,-2.84 1.06,-2.78 1.14,-2.72 1.21,-2.63 1.27,-2.54 1.30,-2.44 1.33,-2.34 1.33,-2.23 1.33,-2.13 1.29,-2.03 1.25,-1.93 1.19,-1.85 1.12,-1.76 1.03,-1.71 0.94,-1.65 0.84,-1.62 0.74,-1.60 0.63,-1.60 0.52,-1.61 0.43,-1.65 0.33,-1.70 0.25,-1.77 0.17,-1.84 0.12,-1.93 0.07,-2.02 0.04,-2.13 0.02,-2.23 0.04,-2.34 0.05,-2.44 0.05,-2.44 0.05,-2.44 0.42,-4.14 0.80,-5.83 1.22,-6.58 1.63,-7.33 2.13,-8.07 2.62,-8.81 3.31,-9.75 3.99,-10.69 4.85,-11.82 5.70,-12.94 6.72,-14.28 7.74,-15.62 9.15,-17.10 10.55,-18.58 12.06,-19.49 13.57,-20.41 15.21,-21.35 16.86,-22.29 18.10,-22.82 19.34,-23.34 19.50,-23.44 19.65,-23.54 19.82,-23.61 20.00,-23.67 20.18,-23.69 20.36,-23.70 20.55,-23.68 20.73,-23.65 20.90,-23.58 21.07,-23.51 21.22,-23.41 21.37,-23.30 21.49,-23.16 21.60,-23.02 21.69,-22.85 21.77,-22.69 21.81,-22.51 21.85,-22.33 21.84,-22.14 21.84,-21.96 21.79,-21.78 21.74,-21.61 21.66,-21.44 21.57,-21.28 21.44,-21.15 21.32,-21.01 20.94,-20.69 20.57,-20.36 19.81,-19.72 19.04,-19.07 17.91,-18.20 16.77,-17.33 15.76,-16.63 14.75,-15.93 13.66,-14.71 12.57,-13.49 11.58,-11.97 10.60,-10.45 9.79,-9.49 8.97,-8.53 8.25,-7.62 7.53,-6.70 6.80,-5.65 6.06,-4.60 5.57,-3.89 5.08,-3.18 4.35,-2.30 3.61,-1.41 3.08,-0.87 2.56,-0.34 1.57,0.17 0.58,0.69 0.49,0.75 0.40,0.81 0.29,0.84 0.19,0.88 0.08,0.89 -0.02,0.90 -0.12,0.89 -0.23,0.87 -0.33,0.83 -0.43,0.79 -0.52,0.72 -0.61,0.66 -0.68,0.58 -0.75,0.49 -0.80,0.39 -0.85,0.30 -0.87,0.19 -0.90,0.08 -0.89,-0.02 -0.89,-0.12 -0.86,-0.23 -0.83,-0.34 -0.78,-0.43 -0.73,-0.53 -0.65,-0.61 -0.58,-0.69 -0.58,-0.69 L -0.58,-0.69 Z"/></g><g transform="translate(56.888885498046875 160.4444580078125) rotate(0 -18.888885498046875 0.5555572509765625)" stroke="none"><path fill="#000000" d="M 0,0.92 Q 0,0.92 -0.95,1.27 -1.91,1.62 -3.24,1.69 -4.57,1.77 -6.49,1.86 -8.41,1.95 -10.27,2.00 -12.13,2.04 -14.16,1.99 -16.19,1.95 -18.17,2.12 -20.14,2.29 -22.34,2.36 -24.53,2.44 -26.36,2.47 -28.18,2.50 -29.69,2.45 -31.21,2.40 -32.35,2.42 -33.50,2.43 -35.55,1.90 -37.59,1.37 -37.70,1.34 -37.80,1.31 -37.89,1.25 -37.97,1.19 -38.04,1.11 -38.10,1.02 -38.13,0.92 -38.16,0.82 -38.16,0.71 -38.16,0.61 -38.13,0.51 -38.09,0.40 -38.03,0.32 -37.96,0.24 -37.87,0.18 -37.78,0.12 -37.68,0.09 -37.58,0.07 -37.47,0.07 -37.37,0.08 -37.27,0.12 -37.17,0.16 -37.09,0.23 -37.01,0.30 -36.96,0.39 -36.90,0.49 -36.88,0.59 -36.86,0.69 -36.87,0.80 -36.89,0.90 -36.93,1.00 -36.98,1.10 -37.05,1.17 -37.13,1.25 -37.22,1.30 -37.31,1.35 -37.42,1.36 -37.52,1.38 -37.63,1.36 -37.73,1.34 -37.83,1.29 -37.92,1.24 -37.99,1.16 -38.06,1.08 -38.11,0.98 -38.15,0.89 -38.16,0.78 -38.17,0.68 -38.15,0.57 -38.12,0.47 -38.07,0.38 -38.01,0.29 -37.93,0.22 -37.85,0.15 -37.75,0.11 -37.65,0.08 -37.54,0.07 -37.44,0.07 -37.44,0.07 -37.44,0.07 -35.52,-0.35 -33.61,-0.78 -32.35,-0.85 -31.10,-0.92 -29.67,-0.87 -28.24,-0.82 -26.44,-0.85 -24.64,-0.88 -22.53,-0.95 -20.42,-1.02 -18.27,-1.19 -16.12,-1.36 -14.16,-1.31 -12.20,-1.27 -10.38,-1.30 -8.57,-1.33 -6.64,-1.42 -4.72,-1.51 -3.32,-1.57 -1.91,-1.62 -0.95,-1.27 0,-0.92 0.11,-0.91 0.22,-0.89 0.32,-0.85 0.43,-0.81 0.52,-0.75 0.61,-0.69 0.68,-0.60 0.76,-0.52 0.81,-0.42 0.86,-0.32 0.89,-0.21 0.91,-0.11 0.91,0.00 0.91,0.11 0.89,0.21 0.86,0.32 0.81,0.42 0.76,0.52 0.68,0.60 0.61,0.69 0.52,0.75 0.43,0.81 0.32,0.85 0.22,0.89 0.11,0.91 -0.00,0.92 -0.00,0.92 L 0,0.92 Z"/></g><g transform="translate(13.111114501953125 182.22222900390625) rotate(0 1.888885498046875 17.555557250976562)" stroke="none"><path fill="#000000" d="M 0.92,-0.50 Q 0.92,-0.50 1.57,0.07 2.22,0.65 2.47,2.04 2.72,3.42 2.86,5.04 3.00,6.65 2.99,8.60 2.99,10.56 2.99,12.50 2.98,14.45 3.11,16.18 3.24,17.90 3.29,19.85 3.35,21.79 3.37,23.06 3.39,24.33 3.53,25.96 3.66,27.59 3.72,28.98 3.78,30.36 3.92,31.23 4.07,32.10 4.14,32.88 4.21,33.66 4.29,33.96 4.37,34.26 4.38,34.34 4.38,34.42 4.37,34.50 4.35,34.58 4.32,34.65 4.29,34.72 4.24,34.78 4.19,34.85 4.13,34.90 4.07,34.94 4.00,34.98 3.92,35.01 3.85,35.02 3.77,35.04 3.69,35.03 3.61,35.03 3.53,35.00 3.46,34.98 3.39,34.94 3.32,34.90 3.27,34.84 3.21,34.79 3.17,34.72 3.13,34.65 3.11,34.58 3.08,34.50 3.13,34.26 3.18,34.02 3.25,33.94 3.33,33.86 3.42,33.81 3.51,33.76 3.62,33.74 3.72,33.73 3.83,33.74 3.93,33.76 4.03,33.81 4.12,33.86 4.20,33.93 4.27,34.01 4.31,34.11 4.36,34.20 4.37,34.31 4.38,34.41 4.36,34.52 4.34,34.62 4.29,34.71 4.23,34.80 4.15,34.87 4.07,34.94 3.97,34.98 3.87,35.02 3.77,35.03 3.66,35.04 3.56,35.01 3.46,34.98 3.37,34.92 3.28,34.86 3.21,34.78 3.15,34.69 3.12,34.59 3.08,34.49 3.08,34.39 3.08,34.28 3.11,34.18 3.15,34.08 3.21,33.99 3.27,33.91 3.36,33.85 3.45,33.79 3.55,33.76 3.65,33.73 3.76,33.74 3.87,33.74 3.96,33.78 4.06,33.82 4.14,33.89 4.23,33.95 4.28,34.05 4.34,34.14 4.36,34.24 4.38,34.34 4.37,34.45 4.36,34.55 4.37,34.41 4.37,34.26 4.38,34.34 4.38,34.42 4.37,34.50 4.35,34.58 4.32,34.65 4.29,34.72 4.24,34.78 4.19,34.85 4.13,34.90 4.07,34.94 4.00,34.98 3.92,35.01 3.85,35.02 3.77,35.04 3.69,35.03 3.61,35.03 3.53,35.00 3.46,34.98 3.39,34.94 3.32,34.90 3.27,34.84 3.21,34.79 3.17,34.72 3.13,34.65 3.11,34.58 3.08,34.50 2.11,34.80 1.14,35.10 1.03,34.53 0.93,33.96 0.87,33.28 0.80,32.61 0.64,31.56 0.48,30.51 0.42,29.18 0.37,27.86 0.23,26.12 0.09,24.39 0.06,23.14 0.04,21.89 -0.00,20.01 -0.05,18.14 -0.18,16.29 -0.31,14.45 -0.31,12.49 -0.30,10.54 -0.29,8.74 -0.28,6.93 -0.41,5.41 -0.54,3.89 -0.61,3.02 -0.69,2.15 -0.81,1.33 -0.92,0.50 -0.97,0.38 -1.02,0.26 -1.04,0.14 -1.05,0.01 -1.04,-0.10 -1.03,-0.23 -0.98,-0.35 -0.94,-0.47 -0.87,-0.58 -0.80,-0.68 -0.70,-0.77 -0.61,-0.86 -0.50,-0.92 -0.39,-0.98 -0.26,-1.01 -0.14,-1.04 -0.01,-1.05 0.11,-1.05 0.23,-1.02 0.35,-0.99 0.47,-0.93 0.58,-0.88 0.68,-0.79 0.78,-0.71 0.85,-0.61 0.92,-0.50 0.92,-0.50 L 0.92,-0.50 Z"/></g><g transform="translate(16.666656494140625 221.55557250976562) rotate(0 13.555557250976562 1.1110992431640625)" stroke="none"><path fill="#000000" d="M 0.37,-1.00 Q 0.37,-1.00 1.45,-0.77 2.53,-0.54 3.40,-0.41 4.28,-0.29 5.42,-0.09 6.56,0.10 7.38,0.10 8.21,0.11 9.74,0.24 11.27,0.38 12.26,0.43 13.25,0.49 15.03,0.43 16.81,0.37 18.48,0.48 20.16,0.58 21.23,0.57 22.30,0.55 23.17,0.54 24.04,0.53 25.27,0.55 26.50,0.57 26.58,0.51 26.67,0.44 26.77,0.41 26.87,0.37 26.97,0.37 27.08,0.37 27.18,0.40 27.28,0.43 27.37,0.49 27.45,0.55 27.51,0.64 27.58,0.73 27.61,0.83 27.64,0.93 27.63,1.04 27.63,1.14 27.59,1.24 27.56,1.34 27.49,1.42 27.42,1.51 27.33,1.56 27.24,1.62 27.14,1.65 27.04,1.67 26.93,1.66 26.83,1.65 26.73,1.61 26.63,1.57 26.55,1.50 26.47,1.42 26.42,1.33 26.37,1.24 26.35,1.13 26.33,1.03 26.35,0.93 26.36,0.82 26.41,0.73 26.46,0.63 26.53,0.56 26.61,0.48 26.70,0.43 26.80,0.39 26.90,0.37 27.01,0.36 27.11,0.38 27.22,0.40 27.31,0.45 27.40,0.51 27.47,0.59 27.54,0.66 27.58,0.76 27.62,0.86 27.63,0.97 27.64,1.07 27.61,1.18 27.59,1.28 27.53,1.37 27.47,1.46 27.47,1.46 27.47,1.46 25.77,2.47 24.06,3.48 23.20,3.48 22.34,3.49 21.15,3.51 19.96,3.52 18.41,3.41 16.87,3.29 14.98,3.31 13.08,3.33 12.05,3.27 11.01,3.21 9.58,3.07 8.15,2.93 7.12,2.90 6.08,2.86 4.96,2.67 3.83,2.47 2.69,2.27 1.55,2.07 0.59,1.54 -0.37,1.00 -0.49,0.94 -0.60,0.88 -0.70,0.79 -0.79,0.71 -0.87,0.60 -0.94,0.50 -0.99,0.38 -1.03,0.26 -1.05,0.13 -1.07,0.00 -1.05,-0.12 -1.04,-0.25 -0.99,-0.37 -0.95,-0.49 -0.87,-0.60 -0.80,-0.70 -0.70,-0.79 -0.61,-0.87 -0.49,-0.93 -0.38,-0.99 -0.25,-1.03 -0.13,-1.06 -0.00,-1.06 0.12,-1.06 0.25,-1.03 0.37,-1.00 0.37,-1.00 L 0.37,-1.00 Z"/></g><g transform="translate(24.22222900390625 177.33334350585938) rotate(0 6.2222137451171875 -54.44444274902344)" stroke="none"><path fill="#000000" d="M -1.19,-0.44 Q -1.19,-0.44 -0.93,-1.51 -0.66,-2.58 -0.32,-3.57 0.02,-4.57 0.29,-5.47 0.55,-6.37 0.77,-7.60 1.00,-8.82 1.22,-10.12 1.45,-11.43 1.62,-12.16 1.78,-12.90 1.98,-13.71 2.17,-14.52 2.45,-15.52 2.72,-16.53 3.04,-17.55 3.35,-18.56 3.70,-19.38 4.05,-20.21 4.46,-21.02 4.88,-21.83 5.21,-22.61 5.54,-23.39 5.84,-24.76 6.14,-26.13 6.41,-27.51 6.68,-28.89 6.92,-30.60 7.15,-32.30 7.32,-33.85 7.48,-35.40 7.83,-36.87 8.17,-38.34 8.37,-39.34 8.56,-40.34 8.79,-41.21 9.01,-42.07 9.15,-43.10 9.28,-44.12 9.41,-45.28 9.54,-46.43 9.73,-47.78 9.91,-49.14 10.05,-50.38 10.19,-51.63 10.24,-53.39 10.30,-55.14 10.32,-56.86 10.35,-58.57 10.43,-59.73 10.50,-60.89 10.53,-62.16 10.56,-63.44 10.58,-64.62 10.59,-65.80 10.60,-67.33 10.60,-68.85 10.60,-70.59 10.61,-72.32 10.67,-74.23 10.74,-76.15 10.70,-77.93 10.66,-79.71 10.65,-80.87 10.63,-82.04 10.62,-83.05 10.62,-84.06 10.61,-84.93 10.61,-85.81 10.61,-86.76 10.61,-87.70 10.49,-88.51 10.37,-89.31 10.31,-90.34 10.25,-91.37 10.16,-92.60 10.07,-93.83 9.97,-95.18 9.87,-96.54 9.77,-97.74 9.66,-98.95 9.55,-100.03 9.45,-101.11 9.40,-102.26 9.35,-103.41 9.33,-104.08 9.31,-104.75 10.23,-106.93 11.14,-109.11 11.21,-109.19 11.28,-109.27 11.37,-109.32 11.46,-109.38 11.57,-109.40 11.67,-109.42 11.78,-109.41 11.88,-109.40 11.98,-109.35 12.07,-109.31 12.15,-109.23 12.23,-109.16 12.28,-109.07 12.33,-108.97 12.34,-108.87 12.36,-108.76 12.34,-108.66 12.32,-108.55 12.27,-108.46 12.22,-108.37 12.14,-108.29 12.07,-108.22 11.97,-108.18 11.87,-108.13 11.77,-108.12 11.66,-108.11 11.56,-108.14 11.45,-108.16 11.36,-108.21 11.27,-108.27 11.20,-108.35 11.14,-108.43 11.10,-108.53 11.06,-108.63 11.05,-108.74 11.05,-108.84 11.08,-108.95 11.11,-109.05 11.17,-109.14 11.23,-109.22 11.31,-109.29 11.40,-109.35 11.50,-109.38 11.60,-109.42 11.71,-109.41 11.81,-109.41 11.91,-109.38 12.01,-109.34 12.10,-109.28 12.18,-109.21 12.24,-109.13 12.30,-109.04 12.33,-108.93 12.35,-108.83 12.35,-108.73 12.34,-108.62 12.30,-108.52 12.26,-108.42 12.26,-108.42 12.26,-108.42 12.39,-106.63 12.51,-104.84 12.54,-104.19 12.56,-103.54 12.60,-102.49 12.65,-101.43 12.76,-100.33 12.87,-99.23 12.97,-98.00 13.08,-96.77 13.18,-95.41 13.28,-94.05 13.37,-92.80 13.46,-91.55 13.51,-90.65 13.56,-89.76 13.69,-88.73 13.83,-87.71 13.83,-86.77 13.83,-85.82 13.83,-84.95 13.84,-84.08 13.84,-83.08 13.85,-82.08 13.86,-80.93 13.88,-79.77 13.92,-77.91 13.95,-76.04 13.89,-74.18 13.82,-72.32 13.82,-70.58 13.82,-68.84 13.81,-67.30 13.80,-65.77 13.79,-64.56 13.78,-63.36 13.74,-62.02 13.71,-60.68 13.64,-59.60 13.56,-58.52 13.54,-56.78 13.51,-55.03 13.45,-53.15 13.38,-51.28 13.24,-49.99 13.10,-48.70 12.91,-47.39 12.73,-46.08 12.60,-44.88 12.47,-43.68 12.30,-42.47 12.12,-41.27 11.92,-40.49 11.72,-39.72 11.51,-38.66 11.30,-37.60 10.99,-36.32 10.68,-35.05 10.51,-33.45 10.34,-31.86 10.08,-30.07 9.83,-28.28 9.55,-26.84 9.27,-25.41 8.89,-23.77 8.50,-22.13 8.11,-21.24 7.73,-20.36 7.36,-19.64 6.99,-18.93 6.69,-18.27 6.40,-17.61 6.09,-16.64 5.79,-15.67 5.51,-14.72 5.24,-13.77 5.04,-12.97 4.84,-12.17 4.68,-11.53 4.52,-10.89 4.28,-9.56 4.04,-8.24 3.77,-6.87 3.50,-5.50 3.21,-4.53 2.92,-3.55 2.56,-2.53 2.20,-1.50 1.69,-0.52 1.19,0.44 1.12,0.58 1.05,0.72 0.95,0.83 0.85,0.95 0.72,1.04 0.59,1.13 0.45,1.18 0.31,1.24 0.15,1.26 0.00,1.28 -0.14,1.26 -0.30,1.24 -0.44,1.18 -0.59,1.13 -0.71,1.04 -0.84,0.96 -0.94,0.84 -1.05,0.73 -1.12,0.59 -1.19,0.45 -1.23,0.30 -1.27,0.15 -1.27,0.00 -1.27,-0.14 -1.23,-0.29 -1.19,-0.44 -1.19,-0.44 L -1.19,-0.44 Z"/></g><g transform="translate(28.22222900390625 152.66668701171875) rotate(0 4.4444427490234375 -63.66667175292969)" stroke="none"><path fill="#000000" d="M -0.79,-0.08 Q -0.79,-0.08 -0.51,-4.65 -0.24,-9.21 0.07,-11.49 0.39,-13.76 0.61,-14.93 0.82,-16.10 1.15,-17.31 1.49,-18.52 1.74,-19.77 1.99,-21.01 2.36,-22.84 2.73,-24.68 3.07,-27.14 3.41,-29.60 3.75,-31.88 4.09,-34.17 4.44,-35.82 4.78,-37.46 5.05,-38.84 5.31,-40.22 5.62,-41.77 5.93,-43.32 6.18,-44.91 6.43,-46.50 6.60,-48.91 6.77,-51.32 6.84,-53.31 6.91,-55.30 6.94,-56.91 6.97,-58.51 7.05,-59.69 7.13,-60.86 7.16,-62.08 7.19,-63.30 7.21,-64.84 7.22,-66.38 7.29,-68.65 7.36,-70.92 7.39,-73.09 7.42,-75.25 7.37,-77.42 7.32,-79.60 7.36,-81.08 7.40,-82.56 7.35,-84.10 7.31,-85.63 7.29,-87.01 7.27,-88.39 7.26,-90.26 7.25,-92.13 7.18,-93.92 7.12,-95.71 6.84,-97.41 6.57,-99.12 6.38,-100.88 6.19,-102.63 6.05,-103.66 5.91,-104.70 5.79,-105.44 5.67,-106.19 5.55,-107.32 5.43,-108.45 5.39,-109.99 5.34,-111.53 5.27,-113.04 5.20,-114.55 5.19,-116.50 5.18,-118.46 5.16,-119.96 5.13,-121.46 5.12,-122.34 5.10,-123.22 5.02,-125.05 4.94,-126.89 4.95,-127.00 4.95,-127.10 4.99,-127.20 5.03,-127.30 5.09,-127.39 5.16,-127.47 5.25,-127.52 5.34,-127.58 5.44,-127.61 5.55,-127.63 5.65,-127.62 5.76,-127.61 5.86,-127.57 5.95,-127.53 6.03,-127.45 6.11,-127.38 6.16,-127.29 6.21,-127.20 6.23,-127.09 6.25,-126.99 6.24,-126.88 6.22,-126.78 6.17,-126.68 6.13,-126.59 6.05,-126.51 5.97,-126.44 5.88,-126.39 5.78,-126.35 5.68,-126.33 5.57,-126.32 5.47,-126.34 5.36,-126.36 5.27,-126.41 5.18,-126.47 5.11,-126.55 5.04,-126.63 5.00,-126.72 4.96,-126.82 4.95,-126.93 4.94,-127.03 4.97,-127.14 4.99,-127.24 5.05,-127.33 5.11,-127.42 5.19,-127.48 5.28,-127.55 5.38,-127.59 5.48,-127.62 5.58,-127.62 5.69,-127.62 5.79,-127.59 5.89,-127.56 5.98,-127.50 6.06,-127.44 6.13,-127.35 6.19,-127.26 6.22,-127.16 6.25,-127.06 6.25,-127.06 6.25,-127.06 6.71,-125.25 7.17,-123.44 7.36,-122.51 7.54,-121.59 7.67,-120.05 7.80,-118.51 7.87,-116.60 7.93,-114.70 8.03,-113.16 8.13,-111.62 8.18,-110.19 8.24,-108.75 8.36,-107.70 8.47,-106.65 8.60,-105.86 8.72,-105.08 8.87,-104.01 9.01,-102.94 9.19,-101.25 9.37,-99.57 9.67,-97.69 9.96,-95.81 10.03,-93.98 10.10,-92.14 10.10,-90.29 10.11,-88.43 10.13,-87.07 10.15,-85.71 10.20,-84.10 10.24,-82.48 10.20,-81.07 10.16,-79.66 10.21,-77.44 10.26,-75.21 10.23,-73.02 10.20,-70.84 10.13,-68.59 10.06,-66.35 10.05,-64.79 10.03,-63.22 10.00,-61.94 9.97,-60.66 9.89,-59.56 9.81,-58.46 9.78,-56.83 9.75,-55.19 9.67,-53.16 9.60,-51.13 9.42,-48.59 9.24,-46.05 8.97,-44.41 8.71,-42.77 8.40,-41.22 8.10,-39.67 7.82,-38.28 7.55,-36.88 7.22,-35.32 6.89,-33.75 6.55,-31.48 6.21,-29.21 5.85,-26.66 5.49,-24.11 5.12,-22.28 4.74,-20.44 4.45,-19.07 4.15,-17.70 3.79,-16.66 3.43,-15.61 3.23,-14.49 3.02,-13.36 2.65,-11.14 2.28,-8.92 1.53,-4.42 0.79,0.08 0.76,0.18 0.74,0.27 0.70,0.36 0.65,0.44 0.59,0.51 0.53,0.59 0.45,0.64 0.37,0.70 0.28,0.73 0.19,0.77 0.10,0.78 0.00,0.79 -0.08,0.78 -0.18,0.77 -0.27,0.74 -0.36,0.70 -0.44,0.65 -0.52,0.60 -0.58,0.52 -0.65,0.45 -0.69,0.37 -0.74,0.28 -0.76,0.19 -0.79,0.10 -0.79,0.00 -0.79,-0.08 -0.79,-0.08 L -0.79,-0.08 Z"/></g><g transform="translate(50.444427490234375 172.88888549804688) rotate(0 -2.666656494140625 -57.44444274902344)" stroke="none"><path fill="#000000" d="M -0.71,0.17 Q -0.71,0.17 -1.30,-0.76 -1.89,-1.70 -1.97,-2.65 -2.06,-3.60 -2.09,-4.35 -2.12,-5.10 -2.14,-6.00 -2.15,-6.89 -2.22,-7.59 -2.29,-8.29 -2.39,-9.32 -2.49,-10.34 -2.54,-11.33 -2.58,-12.31 -2.54,-13.48 -2.50,-14.65 -2.61,-15.99 -2.72,-17.32 -2.77,-19.12 -2.82,-20.91 -2.78,-23.04 -2.73,-25.16 -2.71,-27.19 -2.70,-29.22 -2.88,-31.22 -3.06,-33.23 -3.38,-35.20 -3.71,-37.18 -3.99,-39.62 -4.26,-42.05 -4.50,-44.62 -4.75,-47.19 -4.98,-49.74 -5.21,-52.30 -5.44,-54.73 -5.66,-57.15 -5.76,-59.89 -5.86,-62.63 -5.84,-65.34 -5.82,-68.05 -5.81,-70.59 -5.80,-73.13 -5.73,-75.63 -5.66,-78.14 -5.64,-80.78 -5.61,-83.42 -5.66,-85.80 -5.70,-88.18 -5.78,-90.73 -5.85,-93.28 -5.87,-95.53 -5.88,-97.78 -5.93,-99.80 -5.97,-101.82 -6.02,-103.50 -6.06,-105.19 -6.11,-106.87 -6.16,-108.55 -6.04,-111.39 -5.93,-114.23 -5.92,-114.34 -5.91,-114.44 -5.87,-114.54 -5.83,-114.64 -5.76,-114.72 -5.69,-114.80 -5.60,-114.85 -5.51,-114.90 -5.40,-114.92 -5.30,-114.94 -5.19,-114.93 -5.09,-114.92 -4.99,-114.87 -4.90,-114.82 -4.82,-114.75 -4.75,-114.67 -4.70,-114.58 -4.65,-114.48 -4.63,-114.38 -4.62,-114.27 -4.64,-114.17 -4.66,-114.07 -4.71,-113.97 -4.76,-113.88 -4.84,-113.81 -4.92,-113.74 -5.02,-113.69 -5.11,-113.65 -5.22,-113.64 -5.33,-113.63 -5.43,-113.66 -5.53,-113.68 -5.62,-113.74 -5.71,-113.80 -5.78,-113.88 -5.85,-113.96 -5.88,-114.06 -5.92,-114.16 -5.92,-114.27 -5.93,-114.37 -5.90,-114.47 -5.87,-114.58 -5.80,-114.66 -5.74,-114.75 -5.66,-114.81 -5.57,-114.87 -5.47,-114.91 -5.37,-114.94 -5.26,-114.94 -5.16,-114.93 -5.06,-114.90 -4.96,-114.86 -4.87,-114.80 -4.79,-114.73 -4.73,-114.64 -4.67,-114.55 -4.65,-114.45 -4.62,-114.34 -4.62,-114.35 -4.62,-114.35 -4.18,-111.52 -3.74,-108.70 -3.58,-107.02 -3.42,-105.34 -3.27,-103.64 -3.11,-101.93 -3.00,-99.88 -2.89,-97.82 -2.83,-95.60 -2.77,-93.38 -2.68,-90.81 -2.58,-88.25 -2.52,-85.82 -2.47,-83.39 -2.50,-80.72 -2.53,-78.05 -2.59,-75.59 -2.66,-73.12 -2.67,-70.57 -2.68,-68.02 -2.71,-65.38 -2.73,-62.74 -2.64,-60.09 -2.55,-57.44 -2.32,-55.01 -2.10,-52.58 -1.87,-50.03 -1.64,-47.48 -1.40,-44.94 -1.16,-42.40 -0.89,-40.04 -0.63,-37.69 -0.29,-35.59 0.05,-33.50 0.23,-31.35 0.42,-29.19 0.40,-27.14 0.38,-25.10 0.33,-23.05 0.29,-20.99 0.33,-19.28 0.37,-17.56 0.48,-16.04 0.59,-14.52 0.53,-13.48 0.48,-12.44 0.51,-11.53 0.54,-10.62 0.63,-9.59 0.71,-8.56 0.78,-7.74 0.84,-6.92 0.84,-6.05 0.84,-5.18 0.85,-4.47 0.86,-3.75 0.86,-3.07 0.87,-2.38 0.79,-1.28 0.71,-0.17 0.72,-0.09 0.73,-0.00 0.72,0.08 0.71,0.17 0.68,0.25 0.65,0.34 0.60,0.41 0.55,0.48 0.48,0.54 0.42,0.60 0.34,0.64 0.26,0.68 0.17,0.71 0.09,0.73 0.00,0.73 -0.08,0.73 -0.17,0.71 -0.25,0.69 -0.33,0.64 -0.41,0.60 -0.48,0.54 -0.55,0.49 -0.60,0.41 -0.65,0.34 -0.68,0.26 -0.71,0.17 -0.71,0.17 L -0.71,0.17 Z"/></g><g transform="translate(47.111114501953125 113.77777099609375) rotate(0 -3.6666717529296875 -51.888885498046875)" stroke="none"><path fill="#000000" d="M -1.14,0.13 Q -1.14,0.13 -1.87,-4.70 -2.59,-9.54 -2.97,-12.62 -3.35,-15.70 -3.70,-17.68 -4.05,-19.65 -4.28,-21.57 -4.51,-23.49 -4.68,-25.47 -4.84,-27.44 -5.03,-28.93 -5.22,-30.43 -5.56,-32.86 -5.90,-35.29 -6.05,-37.66 -6.20,-40.03 -6.32,-41.97 -6.45,-43.91 -6.63,-46.07 -6.81,-48.22 -6.95,-50.37 -7.09,-52.52 -7.15,-54.92 -7.21,-57.33 -7.24,-59.37 -7.27,-61.42 -7.34,-63.22 -7.42,-65.02 -7.45,-66.38 -7.48,-67.74 -7.50,-69.29 -7.51,-70.83 -7.51,-72.51 -7.52,-74.18 -7.52,-75.79 -7.53,-77.40 -7.53,-79.42 -7.53,-81.45 -7.59,-83.04 -7.66,-84.64 -7.68,-85.86 -7.71,-87.07 -7.78,-88.12 -7.86,-89.17 -7.89,-89.97 -7.92,-90.78 -7.98,-91.79 -8.05,-92.80 -8.12,-93.80 -8.19,-94.80 -8.26,-96.01 -8.33,-97.21 -8.30,-98.53 -8.27,-99.84 -8.10,-101.60 -7.93,-103.36 -7.93,-103.47 -7.93,-103.57 -7.89,-103.67 -7.86,-103.77 -7.79,-103.86 -7.72,-103.94 -7.63,-104.00 -7.55,-104.05 -7.44,-104.08 -7.34,-104.11 -7.23,-104.10 -7.13,-104.09 -7.03,-104.05 -6.93,-104.01 -6.85,-103.94 -6.77,-103.86 -6.72,-103.77 -6.67,-103.68 -6.65,-103.58 -6.63,-103.47 -6.64,-103.37 -6.65,-103.26 -6.70,-103.17 -6.75,-103.07 -6.82,-103.00 -6.90,-102.92 -6.99,-102.87 -7.09,-102.82 -7.19,-102.81 -7.30,-102.79 -7.40,-102.81 -7.51,-102.83 -7.60,-102.89 -7.69,-102.94 -7.76,-103.02 -7.83,-103.10 -7.88,-103.19 -7.92,-103.29 -7.93,-103.40 -7.94,-103.50 -7.91,-103.61 -7.89,-103.71 -7.83,-103.80 -7.77,-103.89 -7.69,-103.95 -7.61,-104.02 -7.51,-104.06 -7.41,-104.10 -7.30,-104.10 -7.20,-104.10 -7.10,-104.07 -6.99,-104.04 -6.91,-103.98 -6.82,-103.92 -6.76,-103.83 -6.70,-103.75 -6.66,-103.64 -6.63,-103.54 -6.63,-103.54 -6.63,-103.54 -6.22,-101.74 -5.81,-99.93 -5.69,-98.69 -5.57,-97.46 -5.43,-96.27 -5.29,-95.08 -5.17,-94.05 -5.04,-93.02 -4.96,-91.96 -4.87,-90.90 -4.83,-90.14 -4.80,-89.38 -4.72,-88.26 -4.64,-87.14 -4.62,-85.95 -4.59,-84.76 -4.52,-83.10 -4.46,-81.45 -4.46,-79.42 -4.46,-77.40 -4.45,-75.80 -4.45,-74.19 -4.45,-72.52 -4.44,-70.86 -4.43,-69.33 -4.41,-67.81 -4.38,-66.48 -4.35,-65.14 -4.28,-63.30 -4.20,-61.45 -4.18,-59.43 -4.15,-57.41 -4.10,-55.06 -4.04,-52.72 -3.90,-50.60 -3.76,-48.47 -3.58,-46.29 -3.39,-44.11 -3.27,-42.17 -3.15,-40.22 -3.01,-37.97 -2.87,-35.71 -2.54,-33.26 -2.20,-30.81 -2.00,-29.25 -1.81,-27.68 -1.66,-25.76 -1.52,-23.83 -1.32,-22.00 -1.12,-20.16 -0.78,-18.11 -0.43,-16.05 -0.07,-12.97 0.29,-9.88 0.72,-5.00 1.14,-0.13 1.14,0.00 1.14,0.14 1.11,0.27 1.07,0.41 1.01,0.53 0.94,0.65 0.85,0.76 0.76,0.86 0.64,0.94 0.53,1.02 0.40,1.07 0.27,1.12 0.13,1.13 -0.00,1.15 -0.14,1.13 -0.27,1.11 -0.40,1.06 -0.53,1.01 -0.65,0.94 -0.76,0.86 -0.85,0.75 -0.95,0.65 -1.01,0.52 -1.07,0.40 -1.11,0.27 -1.14,0.13 -1.14,0.13 L -1.14,0.13 Z"/></g></svg>