<svg version="1.1" xmlns="http://www.w3.org/2000/svg" viewBox="0 0 511.7143957996741 388.7604331354968" width="511.7143957996741" height="388.7604331354968">
  <!-- svg-source:excalidraw -->
  
  <defs>
    <style class="style-fonts">
      @font-face {
        font-family: "Virgil";
        src: url("https://excalidraw.com/Virgil.woff2");
      }
      @font-face {
        font-family: "Cascadia";
        src: url("https://excalidraw.com/Cascadia.woff2");
      }
    </style>
  </defs>
  <rect x="0" y="0" width="511.7143957996741" height="388.7604331354968" fill="#ffffff"/><g stroke-linecap="round"><g transform="translate(291.31443242076784 376.5469646099381) rotate(0 -54 -182.8000030517578)"><path d="M-2.56 2.21 C-37.15 -33.67, -66.72 -68.15, -110.58 -108.41 M0.53 -1.63 C-22.83 -27.83, -47.32 -49.25, -105.91 -107.86 M-104.56 -102.43 C-108.61 -145.77, -111.85 -186.54, -109.71 -256.78 M-108.71 -106.44 C-107.66 -162.36, -107.34 -219.1, -109.78 -253.71 M-109.9 -250.4 C-83.1 -278.52, -59.59 -304.26, -4.37 -363.06 M-108.19 -253.1 C-81.24 -285.79, -49.93 -316.91, 1.11 -365.61 M0.3 -366.55 C5.92 -247.08, 2.52 -133.86, -2.37 -0.04 M-2.01 -365.25 C0.04 -225.19, 0.43 -86.76, 0.08 0.62" stroke="#000000" stroke-width="1" fill="none"/></g></g><mask/><g stroke-linecap="round"><g transform="translate(9.714456834830344 189.74697681696932) rotate(0 84 0.8000030517578125)"><path d="M0.57 -0.86 C39.62 0.29, 75.29 0.28, 166.05 1.83 M0.29 -0.55 C56.8 0.59, 114.17 0.76, 167.53 0.76" stroke="#000000" stroke-width="1" fill="none"/></g><g transform="translate(9.714456834830344 189.74697681696932) rotate(0 84 0.8000030517578125)"><path d="M139.89 10.12 C147.55 9.28, 151.86 6.62, 165.58 0.99 M139.61 10.43 C148.92 7.46, 159.12 3.64, 167.05 -0.08" stroke="#000000" stroke-width="1" fill="none"/></g><g transform="translate(9.714456834830344 189.74697681696932) rotate(0 84 0.8000030517578125)"><path d="M139.92 -10.4 C147.65 -6.64, 151.96 -4.7, 165.58 0.99 M139.64 -10.09 C149 -6.13, 159.19 -3.03, 167.05 -0.08" stroke="#000000" stroke-width="1" fill="none"/></g></g><mask/><g stroke-linecap="round"><g transform="translate(292.91440800670534 40.94698902400057) rotate(0 104.39999389648438 -0.4000091552734375)"><path d="M0 0 C55.55 -0.21, 111.09 -0.43, 208.8 -0.8 M0 0 C47.68 -0.18, 95.37 -0.37, 208.8 -0.8" stroke="#000000" stroke-width="1" fill="none"/></g><g transform="translate(292.91440800670534 40.94698902400057) rotate(0 104.39999389648438 -0.4000091552734375)"><path d="M180.65 9.57 C188.14 6.81, 195.63 4.05, 208.8 -0.8 M180.65 9.57 C187.08 7.2, 193.51 4.83, 208.8 -0.8" stroke="#000000" stroke-width="1" fill="none"/></g><g transform="translate(292.91440800670534 40.94698902400057) rotate(0 104.39999389648438 -0.4000091552734375)"><path d="M180.57 -10.95 C188.08 -8.25, 195.59 -5.55, 208.8 -0.8 M180.57 -10.95 C187.02 -8.63, 193.46 -6.32, 208.8 -0.8" stroke="#000000" stroke-width="1" fill="none"/></g></g><mask/><g stroke-linecap="round"><g transform="translate(420.1144202137366 62.5469951275162) rotate(0 -0.79998779296875 -24.400009155273438)"><path d="M0 0 C-0.63 -19.34, -1.27 -38.68, -1.6 -48.8 M0 0 C-0.36 -10.99, -0.72 -21.97, -1.6 -48.8" stroke="#000000" stroke-width="1" fill="none"/></g></g><mask/></svg>