<svg version="1.1" xmlns="http://www.w3.org/2000/svg" viewBox="0 0 990.6247715229887 456.9179916381836" width="990.6247715229887" height="456.9179916381836">
  <!-- svg-source:excalidraw -->
  
  <defs>
    <style class="style-fonts">
      @font-face {
        font-family: "Virgil";
        src: url("https://excalidraw.com/Virgil.woff2");
      }
      @font-face {
        font-family: "Cascadia";
        src: url("https://excalidraw.com/Cascadia.woff2");
      }
    </style>
  </defs>
  <g stroke-linecap="round"><g transform="translate(430.1239971966288 407.0903147678328) rotate(0 -190.34626949648643 -169.84814297330723)"><path d="M1.07 -0.63 C-9.67 2, -21.08 1.01, -29.73 -1.87 M0.43 0.22 C-8.91 0.08, -16.63 -0.96, -30.71 -0.91 M-30.83 -0.26 C-103.75 -2.49, -178.73 -4.55, -380.54 -15.27 M-30.38 -0.79 C-168.95 -6.48, -306.7 -12.29, -380.47 -14.15 M-379.62 -14.93 C-344.66 -80.19, -304.75 -147.81, -194.02 -340.36 M-380.81 -14.3 C-341.91 -81.06, -303.85 -146.36, -193.98 -339.98 M-193.17 -339 C-140.03 -246.34, -88.48 -154.3, 0.02 -0.82 M-193.05 -339.12 C-146.04 -259.87, -99.52 -178.32, -0.56 0.27" stroke="#000000" stroke-width="1" fill="none"/></g></g><mask/><g transform="translate(372.2905404774607 403.0635153511184) rotate(0 -133.420654296875 -83.17295837402344)" stroke="none"><path fill="#e67700" d="M -1.31,0 Q -1.31,0 -1.31,-1.04 -1.31,-2.08 -1.31,-3.57 -1.31,-5.05 -1.70,-6.39 -2.10,-7.72 -2.91,-9.91 -3.73,-12.11 -4.20,-13.64 -4.68,-15.18 -5.19,-17.10 -5.71,-19.01 -6.08,-20.43 -6.45,-21.85 -6.77,-23.69 -7.09,-25.53 -7.52,-27.82 -7.96,-30.11 -8.32,-32.94 -8.67,-35.77 -8.98,-37.92 -9.30,-40.07 -9.77,-43.23 -10.25,-46.39 -11.02,-50.20 -11.80,-54.01 -12.50,-56.94 -13.20,-59.87 -14.43,-63.70 -15.65,-67.53 -17.16,-71.73 -18.67,-75.94 -20.08,-79.05 -21.48,-82.16 -23.65,-86.03 -25.81,-89.90 -28.69,-93.48 -31.56,-97.06 -35.37,-100.96 -39.17,-104.85 -43.82,-109.07 -48.47,-113.29 -52.45,-116.42 -56.43,-119.55 -61.31,-122.93 -66.19,-126.31 -69.95,-128.80 -73.70,-131.28 -77.34,-133.45 -80.97,-135.62 -83.69,-137.21 -86.40,-138.80 -89.27,-140.26 -92.14,-141.71 -94.61,-142.95 -97.08,-144.20 -99.56,-145.51 -102.03,-146.83 -104.84,-148.19 -107.65,-149.55 -110.96,-151.19 -114.28,-152.82 -121.52,-155.58 -128.76,-158.34 -133.24,-159.92 -137.72,-161.49 -141.07,-162.52 -144.42,-163.55 -146.84,-163.97 -149.27,-164.40 -150.93,-164.58 -152.60,-164.76 -153.93,-164.84 -155.26,-164.91 -156.45,-164.95 -157.65,-164.98 -158.93,-164.99 -160.20,-165.01 -161.50,-165.01 -162.81,-165.02 -163.87,-164.78 -164.93,-164.54 -166.01,-164.19 -167.10,-163.85 -168.16,-163.33 -169.22,-162.82 -170.21,-162.33 -171.20,-161.85 -172.40,-161.25 -173.60,-160.66 -175.25,-159.97 -176.90,-159.29 -178.42,-158.59 -179.94,-157.88 -181.74,-156.55 -183.53,-155.22 -186.06,-152.58 -188.58,-149.95 -191.08,-146.69 -193.58,-143.43 -195.60,-140.71 -197.62,-138.00 -199.37,-135.40 -201.13,-132.80 -202.77,-130.45 -204.41,-128.09 -205.94,-125.92 -207.48,-123.76 -209.10,-121.54 -210.72,-119.32 -212.02,-117.62 -213.31,-115.92 -214.23,-114.58 -215.15,-113.23 -215.77,-112.07 -216.39,-110.91 -217.06,-109.73 -217.73,-108.56 -218.23,-107.37 -218.73,-106.18 -219.19,-104.68 -219.65,-103.19 -220.30,-101.35 -220.94,-99.52 -221.35,-98.18 -221.76,-96.85 -222.39,-95.21 -223.02,-93.57 -224.07,-91.47 -225.11,-89.37 -226.33,-87.09 -227.55,-84.81 -234.78,-73.37 -242.02,-61.93 -245.59,-55.91 -249.16,-49.89 -250.96,-46.29 -252.77,-42.70 -253.96,-40.03 -255.16,-37.36 -256.09,-35.09 -257.02,-32.82 -257.53,-30.84 -258.04,-28.87 -258.40,-26.72 -258.76,-24.57 -258.92,-22.11 -259.07,-19.65 -259.14,-18.20 -259.20,-16.75 -259.45,-15.45 -259.70,-14.14 -260.36,-13.26 -261.01,-12.37 -261.89,-10.85 -262.77,-9.33 -264.34,-6.63 -265.92,-3.93 -266.11,-3.83 -266.29,-3.73 -266.50,-3.69 -266.71,-3.65 -266.92,-3.68 -267.13,-3.71 -267.32,-3.81 -267.51,-3.90 -267.66,-4.05 -267.81,-4.21 -267.90,-4.40 -267.99,-4.59 -268.02,-4.80 -268.05,-5.01 -268.00,-5.22 -267.96,-5.43 -267.86,-5.61 -267.75,-5.79 -267.59,-5.93 -267.43,-6.08 -267.24,-6.16 -267.04,-6.24 -266.83,-6.26 -266.62,-6.27 -266.41,-6.22 -266.21,-6.17 -266.03,-6.05 -265.85,-5.93 -265.72,-5.77 -265.59,-5.60 -265.51,-5.40 -265.44,-5.20 -265.44,-4.99 -265.43,-4.78 -265.50,-4.57 -265.56,-4.37 -265.69,-4.20 -265.81,-4.03 -265.99,-3.90 -266.16,-3.78 -266.36,-3.72 -266.57,-3.66 -266.78,-3.67 -266.99,-3.68 -267.19,-3.75 -267.39,-3.83 -267.55,-3.96 -267.72,-4.09 -267.83,-4.27 -267.94,-4.45 -267.99,-4.66 -268.04,-4.87 -268.02,-5.08 -268.01,-5.29 -267.92,-5.49 -267.83,-5.68 -267.69,-5.84 -267.55,-5.99 -267.55,-5.99 -267.55,-5.99 -266.77,-7.33 -265.99,-8.67 -264.99,-10.48 -263.99,-12.29 -263.10,-13.50 -262.22,-14.72 -262.02,-15.80 -261.83,-16.88 -261.76,-18.35 -261.69,-19.82 -261.52,-22.42 -261.35,-25.01 -260.97,-27.27 -260.58,-29.53 -260.02,-31.67 -259.45,-33.82 -258.50,-36.12 -257.55,-38.43 -256.33,-41.15 -255.11,-43.88 -253.26,-47.55 -251.42,-51.22 -247.83,-57.28 -244.24,-63.33 -237.05,-74.69 -229.86,-86.04 -228.66,-88.29 -227.46,-90.54 -226.47,-92.53 -225.48,-94.51 -224.87,-96.07 -224.27,-97.62 -223.85,-99.00 -223.42,-100.39 -222.79,-102.18 -222.16,-103.97 -221.66,-105.59 -221.15,-107.21 -220.58,-108.53 -220.01,-109.86 -219.36,-111.00 -218.70,-112.15 -218.01,-113.43 -217.32,-114.71 -216.36,-116.11 -215.40,-117.51 -214.12,-119.19 -212.84,-120.87 -211.23,-123.07 -209.62,-125.27 -208.10,-127.43 -206.57,-129.59 -204.94,-131.93 -203.31,-134.28 -201.52,-136.92 -199.73,-139.56 -197.69,-142.30 -195.66,-145.03 -193.07,-148.40 -190.47,-151.76 -187.78,-154.55 -185.09,-157.34 -183.07,-158.80 -181.05,-160.26 -179.48,-160.99 -177.91,-161.71 -176.34,-162.36 -174.77,-163.01 -173.57,-163.61 -172.36,-164.20 -171.36,-164.70 -170.35,-165.19 -169.12,-165.77 -167.90,-166.35 -166.69,-166.73 -165.47,-167.11 -164.14,-167.38 -162.81,-167.64 -161.49,-167.64 -160.17,-167.63 -158.87,-167.62 -157.58,-167.60 -156.34,-167.57 -155.10,-167.53 -153.71,-167.45 -152.31,-167.37 -150.56,-167.18 -148.82,-166.98 -146.23,-166.52 -143.65,-166.06 -140.25,-165.02 -136.85,-163.97 -132.34,-162.38 -127.83,-160.80 -120.47,-157.99 -113.11,-155.18 -109.81,-153.55 -106.51,-151.91 -103.65,-150.53 -100.79,-149.15 -98.35,-147.85 -95.90,-146.54 -93.43,-145.30 -90.95,-144.05 -88.01,-142.56 -85.07,-141.07 -82.35,-139.47 -79.63,-137.88 -75.94,-135.68 -72.25,-133.47 -68.47,-130.97 -64.70,-128.47 -59.75,-125.04 -54.81,-121.62 -50.76,-118.43 -46.70,-115.24 -41.99,-110.96 -37.29,-106.68 -33.40,-102.69 -29.51,-98.70 -26.52,-94.95 -23.52,-91.19 -21.31,-87.21 -19.09,-83.24 -17.64,-80.03 -16.20,-76.83 -14.68,-72.58 -13.15,-68.33 -11.90,-64.40 -10.65,-60.48 -9.94,-57.51 -9.22,-54.53 -8.44,-50.66 -7.65,-46.78 -7.17,-43.62 -6.70,-40.45 -6.38,-38.28 -6.07,-36.10 -5.72,-33.35 -5.38,-30.60 -4.94,-28.29 -4.50,-25.98 -4.21,-24.25 -3.91,-22.51 -3.54,-21.10 -3.17,-19.69 -2.67,-17.83 -2.17,-15.96 -1.71,-14.47 -1.25,-12.98 -0.84,-11.81 -0.42,-10.64 -0.03,-9.64 0.35,-8.64 0.83,-6.85 1.31,-5.06 1.31,-3.57 1.31,-2.08 1.31,-1.04 1.31,0 1.29,0.15 1.27,0.31 1.21,0.46 1.16,0.61 1.07,0.74 0.98,0.87 0.86,0.97 0.74,1.08 0.60,1.15 0.46,1.22 0.31,1.26 0.15,1.30 -0.00,1.30 -0.15,1.30 -0.31,1.26 -0.46,1.22 -0.60,1.15 -0.74,1.08 -0.86,0.97 -0.98,0.87 -1.07,0.74 -1.16,0.61 -1.21,0.46 -1.27,0.31 -1.29,0.15 -1.31,-0.00 -1.31,-0.00 L -1.31,0 Z"/></g><g stroke-linecap="round"><g transform="translate(127.32777746360912 350.03340911865234) rotate(0 118.79647557331819 11.084646220969972)"><path d="M-0.48 1.1 C39.23 5.01, 198.84 18.74, 238.55 22.26 M1.48 0.64 C41.08 4.85, 198.83 20.03, 238.11 23.84" stroke="#000000" stroke-width="1" fill="none"/></g></g><mask/><g stroke-linecap="round"><g transform="translate(146.67222229858126 296.9393844604492) rotate(0 108.3443979389101 26.427277951122065)"><path d="M-0.63 1.17 C35.64 9.94, 180.72 43.65, 216.8 52.33 M1.24 0.73 C37.43 9.69, 179.73 45.19, 215.91 53.59" stroke="#000000" stroke-width="1" fill="none"/></g></g><mask/><g stroke-linecap="round"><g transform="translate(177.66864685541282 258.8296127319336) rotate(0 89.31058380201134 33.491727996718154)"><path d="M-1.08 0.96 C28.45 12.04, 147.89 55.57, 177.84 66.72 M0.56 0.41 C30.41 11.67, 150.6 57.2, 180.15 68.12" stroke="#000000" stroke-width="1" fill="none"/></g></g><mask/><g transform="translate(452.44965378661834 434.93087005615234) rotate(0 -0.6666717529296875 -7)" stroke="none"><path fill="#000000" d="M -2.73,0.26 Q -2.73,0.26 -3.32,-3.74 -3.91,-7.75 -3.90,-8.13 -3.89,-8.51 -3.78,-8.87 -3.68,-9.24 -3.50,-9.57 -3.31,-9.91 -3.05,-10.18 -2.79,-10.46 -2.47,-10.67 -2.16,-10.88 -1.80,-11.00 -1.44,-11.13 -1.06,-11.17 -0.68,-11.20 -0.30,-11.15 0.06,-11.09 0.42,-10.95 0.77,-10.80 1.08,-10.58 1.38,-10.35 1.63,-10.06 1.87,-9.77 2.04,-9.43 2.21,-9.09 2.29,-8.72 2.37,-8.34 1.87,-5.96 1.36,-3.58 1.34,-3.30 1.32,-3.03 1.22,-2.77 1.11,-2.52 0.93,-2.31 0.75,-2.11 0.51,-1.97 0.28,-1.83 0.01,-1.77 -0.25,-1.72 -0.52,-1.75 -0.80,-1.78 -1.05,-1.90 -1.29,-2.02 -1.49,-2.21 -1.69,-2.41 -1.81,-2.65 -1.94,-2.90 -1.98,-3.17 -2.02,-3.44 -1.97,-3.71 -1.92,-3.98 -1.79,-4.22 -1.66,-4.46 -1.46,-4.65 -1.26,-4.84 -1.00,-4.95 -0.75,-5.06 -0.48,-5.09 -0.21,-5.11 0.05,-5.05 0.32,-4.99 0.55,-4.84 0.79,-4.70 0.96,-4.48 1.14,-4.27 1.24,-4.02 1.33,-3.76 1.35,-3.48 1.36,-3.21 1.28,-2.95 1.20,-2.68 1.04,-2.46 0.89,-2.23 0.67,-2.07 0.44,-1.90 0.18,-1.82 -0.07,-1.74 -0.34,-1.74 -0.62,-1.74 -0.88,-1.83 -1.14,-1.93 -1.35,-2.09 -1.57,-2.26 -1.72,-2.49 -1.87,-2.72 -1.94,-2.99 -2.01,-3.26 -2.01,-3.26 -2.01,-3.26 -2.96,-5.50 -3.91,-7.75 -3.90,-8.13 -3.89,-8.51 -3.78,-8.87 -3.68,-9.24 -3.50,-9.57 -3.31,-9.91 -3.05,-10.18 -2.79,-10.46 -2.48,-10.67 -2.16,-10.88 -1.80,-11.00 -1.44,-11.13 -1.06,-11.17 -0.68,-11.20 -0.30,-11.15 0.06,-11.09 0.42,-10.95 0.77,-10.80 1.08,-10.58 1.38,-10.35 1.63,-10.06 1.87,-9.77 2.04,-9.43 2.21,-9.09 2.29,-8.72 2.37,-8.34 2.55,-4.30 2.73,-0.26 2.73,0.07 2.72,0.40 2.63,0.72 2.54,1.04 2.38,1.33 2.22,1.62 1.99,1.86 1.77,2.10 1.49,2.28 1.21,2.46 0.90,2.57 0.58,2.68 0.25,2.71 -0.07,2.75 -0.39,2.70 -0.72,2.65 -1.03,2.52 -1.34,2.40 -1.60,2.20 -1.87,2.01 -2.09,1.75 -2.30,1.50 -2.45,1.20 -2.59,0.90 -2.66,0.58 -2.73,0.26 -2.73,0.26 L -2.73,0.26 Z"/></g><g transform="translate(456.4754716577121 440.9179916381836) rotate(0 3.8889007568359375 -20.111114501953125)" stroke="none"><path fill="#000000" d="M -1.34,0.31 Q -1.34,0.31 -2.05,-0.66 -2.75,-1.64 -3.11,-3.40 -3.46,-5.16 -3.86,-7.11 -4.26,-9.07 -4.23,-10.25 -4.20,-11.43 -4.28,-13.25 -4.35,-15.08 -4.49,-17.06 -4.62,-19.04 -4.63,-20.15 -4.63,-21.26 -4.78,-23.37 -4.92,-25.48 -4.90,-26.66 -4.88,-27.85 -4.81,-28.93 -4.73,-30.01 -4.56,-31.24 -4.39,-32.46 -4.04,-34.15 -3.68,-35.83 -3.54,-37.05 -3.40,-38.28 -3.42,-39.47 -3.44,-40.67 -3.56,-41.92 -3.68,-43.18 -3.79,-44.15 -3.89,-45.12 -3.90,-45.44 -3.90,-45.75 -3.83,-46.06 -3.76,-46.37 -3.62,-46.66 -3.47,-46.94 -3.27,-47.18 -3.06,-47.43 -2.80,-47.61 -2.54,-47.80 -2.25,-47.91 -1.95,-48.03 -1.64,-48.07 -1.32,-48.12 -1.00,-48.08 -0.69,-48.05 -0.39,-47.94 -0.09,-47.84 0.16,-47.66 0.43,-47.48 0.64,-47.25 0.86,-47.01 1.01,-46.73 1.16,-46.45 1.24,-46.15 1.33,-45.84 0.46,-47.01 -0.39,-48.17 0.79,-48.10 1.98,-48.02 3.17,-47.75 4.36,-47.48 5.47,-47.23 6.57,-46.97 7.53,-46.43 8.50,-45.88 9.62,-44.52 10.74,-43.15 11.02,-42.04 11.30,-40.92 11.09,-39.56 10.88,-38.20 10.16,-36.15 9.45,-34.10 8.99,-32.81 8.53,-31.51 8.02,-30.01 7.50,-28.50 7.12,-26.94 6.74,-25.37 6.04,-23.75 5.35,-22.12 4.61,-20.22 3.88,-18.32 3.38,-17.29 2.87,-16.25 2.73,-16.03 2.59,-15.81 2.42,-15.54 2.24,-15.27 2.01,-15.05 1.77,-14.83 1.49,-14.68 1.21,-14.52 0.90,-14.44 0.59,-14.35 0.27,-14.34 -0.04,-14.34 -0.36,-14.41 -0.67,-14.48 -0.96,-14.62 -1.24,-14.76 -1.49,-14.97 -1.74,-15.17 -1.92,-15.43 -2.11,-15.69 -2.23,-15.99 -2.36,-16.29 -2.40,-16.61 -2.45,-16.92 -2.42,-17.24 -2.39,-17.56 -2.28,-17.87 -2.17,-18.17 -1.27,-18.95 -0.36,-19.74 0.90,-20.69 2.16,-21.64 3.58,-22.16 5.00,-22.69 6.97,-22.51 8.93,-22.32 9.93,-21.61 10.93,-20.89 11.76,-18.94 12.60,-17.00 12.57,-15.68 12.54,-14.36 12.17,-12.75 11.80,-11.13 11.26,-9.48 10.71,-7.82 10.04,-5.88 9.37,-3.94 8.47,-1.92 7.56,0.10 6.64,1.50 5.71,2.90 5.12,3.79 4.53,4.68 2.96,5.91 1.39,7.14 1.07,7.33 0.75,7.53 0.52,7.67 0.28,7.81 0.01,7.89 -0.24,7.97 -0.52,7.98 -0.80,8.00 -1.07,7.94 -1.34,7.89 -1.59,7.78 -1.84,7.66 -2.06,7.49 -2.27,7.31 -2.44,7.09 -2.61,6.87 -2.72,6.62 -2.83,6.37 -2.88,6.09 -2.93,5.82 -2.91,5.55 -2.89,5.27 -2.80,5.01 -2.72,4.74 -2.57,4.51 -2.43,4.27 -2.23,4.08 -2.03,3.88 -1.80,3.08 -1.57,2.28 -1.51,2.07 -1.46,1.87 -1.34,1.69 -1.22,1.52 -1.05,1.39 -0.88,1.26 -0.68,1.19 -0.48,1.13 -0.26,1.13 -0.05,1.13 0.14,1.20 0.34,1.26 0.51,1.39 0.68,1.52 0.80,1.70 0.92,1.87 0.97,2.08 1.03,2.28 1.02,2.50 1.00,2.71 0.93,2.91 0.85,3.10 0.71,3.26 0.57,3.43 0.39,3.53 0.21,3.64 0.00,3.69 -0.20,3.73 -0.41,3.71 -0.62,3.69 -0.81,3.60 -1.01,3.51 -1.16,3.36 -1.31,3.21 -1.41,3.03 -1.51,2.84 -1.55,2.63 -1.58,2.42 -1.54,2.21 -1.51,2.00 -1.41,1.81 -1.31,1.62 -1.15,1.48 -1.00,1.33 -0.81,1.24 -0.61,1.16 -0.40,1.13 -0.19,1.11 0.01,1.16 0.21,1.20 0.40,1.31 0.58,1.42 0.71,1.59 0.85,1.75 0.93,1.95 1.01,2.14 1.02,2.36 1.03,2.57 1.03,2.57 1.03,2.57 0.89,5.05 0.75,7.53 0.52,7.67 0.28,7.81 0.01,7.89 -0.24,7.97 -0.52,7.98 -0.80,8.00 -1.07,7.94 -1.34,7.89 -1.59,7.78 -1.84,7.66 -2.06,7.49 -2.27,7.31 -2.44,7.09 -2.61,6.87 -2.72,6.62 -2.83,6.37 -2.88,6.09 -2.93,5.82 -2.91,5.55 -2.89,5.27 -2.80,5.01 -2.72,4.74 -2.57,4.51 -2.43,4.27 -2.23,4.08 -2.03,3.88 -1.71,3.69 -1.39,3.49 -0.74,2.53 -0.08,1.56 0.52,0.67 1.13,-0.21 1.83,-1.19 2.53,-2.18 3.34,-3.97 4.16,-5.76 4.84,-7.68 5.52,-9.61 6.03,-11.03 6.54,-12.46 6.86,-13.58 7.18,-14.70 7.19,-16.00 7.20,-17.29 6.09,-17.20 4.97,-17.10 3.78,-16.45 2.59,-15.81 2.42,-15.54 2.24,-15.27 2.01,-15.05 1.77,-14.83 1.49,-14.68 1.21,-14.52 0.90,-14.44 0.59,-14.35 0.27,-14.34 -0.04,-14.34 -0.36,-14.41 -0.67,-14.48 -0.96,-14.62 -1.24,-14.76 -1.49,-14.97 -1.74,-15.17 -1.92,-15.43 -2.11,-15.69 -2.23,-15.99 -2.36,-16.29 -2.40,-16.61 -2.45,-16.92 -2.42,-17.24 -2.39,-17.56 -2.28,-17.87 -2.17,-18.17 -1.85,-18.76 -1.52,-19.34 -0.94,-20.69 -0.35,-22.03 0.06,-23.15 0.48,-24.27 1.03,-25.46 1.58,-26.66 2.03,-28.44 2.47,-30.22 3.00,-31.75 3.52,-33.29 4.01,-34.66 4.49,-36.02 4.96,-37.21 5.43,-38.40 5.53,-39.90 5.62,-41.40 4.35,-41.86 3.08,-42.31 1.44,-42.59 -0.18,-42.87 -2.04,-43.99 -3.89,-45.12 -3.90,-45.44 -3.90,-45.75 -3.83,-46.06 -3.76,-46.37 -3.62,-46.66 -3.47,-46.94 -3.27,-47.18 -3.06,-47.43 -2.80,-47.61 -2.54,-47.80 -2.25,-47.91 -1.95,-48.03 -1.64,-48.07 -1.32,-48.12 -1.00,-48.08 -0.69,-48.05 -0.39,-47.94 -0.09,-47.84 0.16,-47.66 0.43,-47.48 0.64,-47.25 0.86,-47.01 1.01,-46.73 1.16,-46.45 1.24,-46.15 1.33,-45.84 1.36,-45.34 1.39,-44.84 1.51,-43.66 1.62,-42.47 1.76,-40.78 1.90,-39.09 1.77,-37.72 1.63,-36.35 1.40,-34.80 1.16,-33.25 0.84,-31.44 0.51,-29.63 0.40,-27.76 0.30,-25.90 0.39,-24.75 0.48,-23.61 0.52,-21.60 0.57,-19.60 0.71,-18.27 0.84,-16.94 0.87,-15.22 0.89,-13.50 0.94,-12.37 0.98,-11.25 0.94,-9.69 0.89,-8.13 1.23,-7.01 1.57,-5.89 1.65,-4.29 1.73,-2.69 1.53,-1.50 1.34,-0.31 1.36,-0.15 1.38,0.01 1.36,0.17 1.33,0.34 1.27,0.50 1.21,0.65 1.12,0.79 1.02,0.92 0.89,1.03 0.77,1.14 0.62,1.22 0.47,1.29 0.31,1.33 0.15,1.37 -0.01,1.37 -0.18,1.37 -0.34,1.32 -0.50,1.28 -0.65,1.20 -0.79,1.12 -0.92,1.01 -1.04,0.90 -1.13,0.76 -1.23,0.62 -1.28,0.47 -1.34,0.31 -1.34,0.31 L -1.34,0.31 Z"/></g><g transform="translate(227.35790268798556 71.5555419921875) rotate(0 18.22222137451172 -30.77777099609375)" stroke="none"><path fill="#000000" d="M -1.28,-0.25 Q -1.28,-0.25 -1.78,-2.01 -2.27,-3.77 -2.16,-5.60 -2.05,-7.43 -1.99,-9.82 -1.94,-12.21 -1.98,-14.67 -2.02,-17.12 -2.04,-19.87 -2.06,-22.61 -2.13,-25.40 -2.20,-28.19 -2.17,-30.86 -2.14,-33.52 -2.06,-35.87 -1.98,-38.22 -1.75,-40.46 -1.52,-42.71 -1.09,-45.07 -0.66,-47.43 -0.22,-49.46 0.21,-51.49 0.81,-53.42 1.41,-55.35 1.99,-56.95 2.57,-58.55 3.23,-59.76 3.88,-60.96 4.57,-61.82 5.25,-62.68 6.37,-63.34 7.48,-64.00 8.68,-64.20 9.89,-64.41 11.53,-63.89 13.16,-63.36 14.47,-62.20 15.77,-61.04 17.11,-59.08 18.44,-57.13 19.63,-55.03 20.82,-52.92 21.91,-50.64 23.01,-48.36 23.88,-46.71 24.75,-45.06 25.69,-43.34 26.64,-41.62 27.59,-39.66 28.54,-37.70 29.45,-35.72 30.36,-33.74 31.24,-31.99 32.11,-30.25 33.03,-28.89 33.95,-27.52 34.65,-26.40 35.35,-25.27 36.24,-24.27 37.13,-23.27 37.23,-23.15 37.33,-23.03 37.39,-22.88 37.46,-22.74 37.49,-22.58 37.52,-22.43 37.51,-22.27 37.50,-22.11 37.46,-21.96 37.41,-21.81 37.33,-21.67 37.25,-21.53 37.14,-21.42 37.03,-21.31 36.90,-21.22 36.76,-21.14 36.61,-21.09 36.46,-21.04 36.30,-21.03 36.15,-21.02 35.99,-21.05 35.83,-21.07 35.69,-21.14 35.54,-21.20 35.42,-21.30 35.29,-21.39 35.13,-22.09 34.97,-22.78 35.08,-22.96 35.18,-23.15 35.34,-23.29 35.50,-23.43 35.69,-23.52 35.89,-23.61 36.10,-23.62 36.31,-23.64 36.52,-23.59 36.72,-23.54 36.90,-23.43 37.08,-23.32 37.22,-23.15 37.35,-22.99 37.42,-22.79 37.50,-22.59 37.51,-22.38 37.51,-22.16 37.45,-21.96 37.39,-21.76 37.27,-21.58 37.14,-21.41 36.97,-21.28 36.80,-21.16 36.60,-21.10 36.40,-21.03 36.18,-21.04 35.97,-21.04 35.77,-21.11 35.57,-21.19 35.40,-21.32 35.24,-21.45 35.12,-21.63 35.01,-21.81 34.95,-22.01 34.90,-22.22 34.92,-22.43 34.93,-22.64 35.02,-22.84 35.10,-23.03 35.24,-23.19 35.38,-23.35 35.57,-23.46 35.75,-23.56 35.96,-23.60 36.17,-23.65 36.38,-23.62 36.59,-23.59 36.78,-23.50 36.97,-23.40 37.12,-23.25 37.27,-23.11 37.37,-22.92 37.46,-22.73 37.49,-22.52 37.52,-22.31 37.33,-22.79 37.13,-23.27 37.23,-23.15 37.33,-23.03 37.39,-22.88 37.46,-22.74 37.49,-22.58 37.52,-22.43 37.51,-22.27 37.50,-22.11 37.46,-21.96 37.41,-21.81 37.33,-21.67 37.25,-21.54 37.14,-21.42 37.03,-21.31 36.90,-21.23 36.76,-21.14 36.61,-21.09 36.46,-21.04 36.30,-21.03 36.15,-21.02 35.99,-21.05 35.83,-21.07 35.69,-21.14 35.54,-21.20 35.42,-21.30 35.29,-21.39 33.76,-20.63 32.23,-19.86 31.20,-20.91 30.16,-21.96 29.48,-23.03 28.80,-24.09 27.69,-25.78 26.57,-27.47 25.65,-29.31 24.74,-31.14 23.85,-33.07 22.96,-34.99 22.08,-36.82 21.20,-38.64 20.23,-40.41 19.26,-42.17 18.34,-43.92 17.42,-45.68 16.42,-47.78 15.41,-49.89 14.35,-51.79 13.29,-53.70 12.34,-55.17 11.39,-56.65 10.56,-57.64 9.73,-58.63 8.96,-57.55 8.20,-56.47 7.66,-55.01 7.12,-53.55 6.59,-51.88 6.06,-50.21 5.63,-48.28 5.21,-46.35 4.81,-44.21 4.41,-42.08 4.19,-40.05 3.97,-38.02 3.89,-35.73 3.82,-33.44 3.78,-30.89 3.74,-28.34 3.81,-25.49 3.88,-22.65 3.90,-19.93 3.92,-17.22 3.95,-14.64 3.99,-12.07 3.93,-9.55 3.87,-7.03 3.71,-4.82 3.55,-2.61 2.41,-1.17 1.28,0.25 1.23,0.40 1.18,0.55 1.10,0.69 1.02,0.82 0.90,0.93 0.79,1.04 0.65,1.12 0.51,1.20 0.36,1.25 0.21,1.29 0.05,1.30 -0.10,1.31 -0.25,1.27 -0.41,1.24 -0.55,1.18 -0.69,1.11 -0.82,1.01 -0.94,0.91 -1.03,0.78 -1.13,0.66 -1.19,0.51 -1.26,0.37 -1.28,0.21 -1.31,0.05 -1.30,-0.09 -1.28,-0.25 -1.28,-0.25 L -1.28,-0.25 Z"/></g><g transform="translate(218.02457444091525 41.333343505859375) rotate(0 17.888885498046875 -1.1111297607421875)" stroke="none"><path fill="#000000" d="M 1.44,-2.66 Q 1.44,-2.66 3.04,-1.96 4.64,-1.25 5.83,-0.80 7.01,-0.34 9.02,-0.38 11.03,-0.42 12.73,-0.63 14.43,-0.84 16.21,-1.30 18.00,-1.76 19.98,-2.24 21.97,-2.73 24.41,-3.41 26.85,-4.09 30.31,-5.19 33.76,-6.29 33.97,-6.34 34.17,-6.40 34.39,-6.39 34.60,-6.38 34.80,-6.30 34.99,-6.22 35.15,-6.09 35.32,-5.95 35.43,-5.77 35.54,-5.58 35.58,-5.38 35.63,-5.17 35.61,-4.96 35.58,-4.75 35.49,-4.55 35.41,-4.36 35.26,-4.21 35.11,-4.05 34.93,-3.95 34.74,-3.85 34.53,-3.82 34.32,-3.78 34.11,-3.82 33.90,-3.85 33.71,-3.95 33.52,-4.05 33.38,-4.20 33.23,-4.36 33.14,-4.55 33.05,-4.74 33.03,-4.95 33.01,-5.17 33.05,-5.37 33.10,-5.58 33.21,-5.76 33.32,-5.94 33.48,-6.08 33.64,-6.22 33.84,-6.30 34.03,-6.38 34.25,-6.39 34.46,-6.40 34.66,-6.35 34.87,-6.29 35.04,-6.17 35.22,-6.05 35.35,-5.88 35.48,-5.71 35.55,-5.51 35.61,-5.31 35.61,-5.10 35.61,-4.89 35.55,-4.68 35.48,-4.48 35.35,-4.31 35.22,-4.14 35.05,-4.02 34.87,-3.91 34.87,-3.91 34.87,-3.91 31.73,-1.94 28.59,0.02 26.14,1.40 23.69,2.79 21.70,3.54 19.71,4.30 17.54,4.95 15.37,5.61 13.49,5.91 11.60,6.22 9.28,6.34 6.96,6.46 5.74,6.15 4.53,5.85 3.01,5.21 1.48,4.58 0.02,3.62 -1.44,2.66 -1.74,2.45 -2.03,2.24 -2.27,1.96 -2.51,1.68 -2.68,1.36 -2.84,1.03 -2.93,0.68 -3.01,0.32 -3.00,-0.03 -3.00,-0.40 -2.91,-0.75 -2.82,-1.11 -2.64,-1.43 -2.47,-1.75 -2.22,-2.02 -1.98,-2.29 -1.67,-2.49 -1.37,-2.70 -1.03,-2.82 -0.68,-2.95 -0.32,-2.99 0.03,-3.03 0.40,-2.98 0.76,-2.93 1.10,-2.79 1.44,-2.66 1.44,-2.66 L 1.44,-2.66 Z"/></g><g transform="translate(20.73496984545912 380.15904967765493) rotate(36.16705810615171 4.888885498046875 15.293271626646657)" stroke="none"><path fill="#000000" d="M -0.23,0.62 Q -0.23,0.62 -1.50,1.48 -2.76,2.33 -3.74,3.87 -4.72,5.40 -5.14,6.73 -5.55,8.05 -5.68,9.40 -5.80,10.74 -5.74,12.15 -5.69,13.57 -5.49,14.97 -5.29,16.37 -5.02,17.93 -4.75,19.49 -4.26,20.66 -3.78,21.83 -3.28,23.19 -2.77,24.55 -1.42,26.13 -0.07,27.70 1.40,28.09 2.88,28.47 4.04,27.92 5.20,27.37 6.40,26.44 7.60,25.50 8.50,24.25 9.39,23.00 10.59,21.55 11.78,20.10 12.96,18.90 14.15,17.70 15.87,15.53 17.59,13.36 17.75,13.21 17.90,13.06 18.09,12.97 18.28,12.87 18.49,12.85 18.70,12.82 18.91,12.86 19.12,12.90 19.30,13.01 19.49,13.11 19.63,13.27 19.77,13.43 19.85,13.62 19.93,13.82 19.95,14.03 19.97,14.24 19.91,14.45 19.86,14.66 19.75,14.83 19.63,15.01 19.46,15.15 19.30,15.28 19.10,15.35 18.90,15.42 18.69,15.43 18.47,15.43 18.27,15.37 18.07,15.31 17.90,15.18 17.72,15.06 17.60,14.88 17.48,14.71 17.42,14.51 17.36,14.30 17.36,14.09 17.37,13.88 17.44,13.68 17.52,13.48 17.65,13.31 17.79,13.15 17.96,13.04 18.14,12.92 18.35,12.87 18.56,12.82 18.77,12.84 18.98,12.86 19.18,12.94 19.37,13.03 19.53,13.17 19.69,13.31 19.79,13.50 19.89,13.68 19.93,13.89 19.97,14.10 19.94,14.31 19.91,14.52 19.82,14.71 19.72,14.90 19.72,14.90 19.72,14.90 18.40,16.93 17.08,18.96 16.85,21.12 16.62,23.28 15.68,25.04 14.74,26.80 13.33,28.79 11.92,30.78 10.40,32.02 8.89,33.27 7.10,34.20 5.31,35.13 3.32,35.23 1.33,35.33 -0.35,34.87 -2.03,34.42 -3.52,33.56 -5.02,32.69 -6.23,31.41 -7.43,30.13 -8.39,28.57 -9.35,27.01 -9.84,25.66 -10.33,24.32 -10.98,22.51 -11.63,20.70 -11.92,19.00 -12.21,17.29 -12.43,15.52 -12.66,13.76 -12.69,11.85 -12.72,9.93 -12.45,7.96 -12.18,5.98 -11.67,4.38 -11.16,2.78 -10.46,1.21 -9.76,-0.34 -8.54,-1.72 -7.32,-3.10 -5.91,-3.71 -4.49,-4.33 -3.03,-4.40 -1.57,-4.47 -0.66,-3.21 0.23,-1.96 0.38,-1.91 0.53,-1.86 0.67,-1.78 0.81,-1.70 0.92,-1.58 1.03,-1.47 1.11,-1.34 1.19,-1.20 1.24,-1.05 1.29,-0.90 1.30,-0.74 1.31,-0.58 1.28,-0.43 1.25,-0.27 1.18,-0.13 1.12,0.01 1.02,0.13 0.92,0.26 0.80,0.35 0.67,0.45 0.53,0.52 0.39,0.58 0.23,0.61 0.07,0.64 -0.07,0.63 -0.23,0.62 -0.23,0.62 L -0.23,0.62 Z"/></g><g stroke-linecap="round"><g transform="translate(921.5595884429988 405.5836903894368) rotate(359.3266980284369 -169.09139924195176 -167.11655435972386)"><path d="M0 0 C0 0, 0 0, 0 0 M0 0 C0 0, 0 0, 0 0 M-0.63 0.05 C-122.45 -4.85, -245.57 -10.85, -358.38 -11.49 M0.25 -0.16 C-128.65 -6.09, -256.92 -10.36, -359.32 -12.1 M-360.6 -11.9 C-302.85 -116.26, -241.43 -217.97, -171.23 -336.41 M-359.63 -11.86 C-303.93 -104.52, -251.25 -197.61, -172.03 -337.17 M-172.49 -337.93 C-106.72 -221.13, -40.32 -104.37, 20.77 1.86 M-171.79 -336.67 C-111.05 -228.78, -48.58 -119.51, 21.46 2.92" stroke="#000000" stroke-width="1" fill="none"/></g></g><mask/><g transform="translate(884.9913237540143 404.88259283386657) rotate(359.3266980284369 -133.420654296875 -83.17295837402344)" stroke="none"><path fill="#e67700" d="M -1.31,0 Q -1.31,0 -1.31,-1.04 -1.31,-2.08 -1.31,-3.57 -1.31,-5.05 -1.70,-6.39 -2.10,-7.72 -2.91,-9.91 -3.73,-12.11 -4.20,-13.64 -4.68,-15.18 -5.19,-17.10 -5.71,-19.01 -6.08,-20.43 -6.45,-21.85 -6.77,-23.69 -7.09,-25.53 -7.52,-27.82 -7.96,-30.11 -8.32,-32.94 -8.67,-35.77 -8.98,-37.92 -9.30,-40.07 -9.77,-43.23 -10.25,-46.39 -11.02,-50.20 -11.80,-54.01 -12.50,-56.94 -13.20,-59.87 -14.43,-63.70 -15.65,-67.53 -17.16,-71.73 -18.67,-75.94 -20.08,-79.05 -21.48,-82.16 -23.65,-86.03 -25.81,-89.90 -28.69,-93.48 -31.56,-97.06 -35.37,-100.96 -39.17,-104.85 -43.82,-109.07 -48.47,-113.29 -52.45,-116.42 -56.43,-119.55 -61.31,-122.93 -66.19,-126.31 -69.95,-128.80 -73.70,-131.28 -77.34,-133.45 -80.97,-135.62 -83.69,-137.21 -86.40,-138.80 -89.27,-140.26 -92.14,-141.71 -94.61,-142.95 -97.08,-144.20 -99.56,-145.51 -102.03,-146.83 -104.84,-148.19 -107.65,-149.55 -110.96,-151.19 -114.28,-152.82 -121.52,-155.58 -128.76,-158.34 -133.24,-159.92 -137.72,-161.49 -141.07,-162.52 -144.42,-163.55 -146.84,-163.97 -149.27,-164.40 -150.93,-164.58 -152.60,-164.76 -153.93,-164.84 -155.26,-164.91 -156.45,-164.95 -157.65,-164.98 -158.93,-164.99 -160.20,-165.01 -161.50,-165.01 -162.81,-165.02 -163.87,-164.78 -164.93,-164.54 -166.01,-164.19 -167.10,-163.85 -168.16,-163.33 -169.22,-162.82 -170.21,-162.33 -171.20,-161.85 -172.40,-161.25 -173.60,-160.66 -175.25,-159.97 -176.90,-159.29 -178.42,-158.59 -179.94,-157.88 -181.74,-156.55 -183.53,-155.22 -186.06,-152.58 -188.58,-149.95 -191.08,-146.69 -193.58,-143.43 -195.60,-140.71 -197.62,-138.00 -199.37,-135.40 -201.13,-132.80 -202.77,-130.45 -204.41,-128.09 -205.94,-125.92 -207.48,-123.76 -209.10,-121.54 -210.72,-119.32 -212.02,-117.62 -213.31,-115.92 -214.23,-114.58 -215.15,-113.23 -215.77,-112.07 -216.39,-110.91 -217.06,-109.73 -217.73,-108.56 -218.23,-107.37 -218.73,-106.18 -219.19,-104.68 -219.65,-103.19 -220.30,-101.35 -220.94,-99.52 -221.35,-98.18 -221.76,-96.85 -222.39,-95.21 -223.02,-93.57 -224.07,-91.47 -225.11,-89.37 -226.33,-87.09 -227.55,-84.81 -234.78,-73.37 -242.02,-61.93 -245.59,-55.91 -249.16,-49.89 -250.96,-46.29 -252.77,-42.70 -253.96,-40.03 -255.16,-37.36 -256.09,-35.09 -257.02,-32.82 -257.53,-30.84 -258.04,-28.87 -258.40,-26.72 -258.76,-24.57 -258.92,-22.11 -259.07,-19.65 -259.14,-18.20 -259.20,-16.75 -259.45,-15.45 -259.70,-14.14 -260.36,-13.26 -261.01,-12.37 -261.89,-10.85 -262.77,-9.33 -264.34,-6.63 -265.92,-3.93 -266.11,-3.83 -266.29,-3.73 -266.50,-3.69 -266.71,-3.65 -266.92,-3.68 -267.13,-3.71 -267.32,-3.81 -267.51,-3.90 -267.66,-4.05 -267.81,-4.21 -267.90,-4.40 -267.99,-4.59 -268.02,-4.80 -268.05,-5.01 -268.00,-5.22 -267.96,-5.43 -267.86,-5.61 -267.75,-5.79 -267.59,-5.93 -267.43,-6.08 -267.24,-6.16 -267.04,-6.24 -266.83,-6.26 -266.62,-6.27 -266.41,-6.22 -266.21,-6.17 -266.03,-6.05 -265.85,-5.93 -265.72,-5.77 -265.59,-5.60 -265.51,-5.40 -265.44,-5.20 -265.44,-4.99 -265.43,-4.78 -265.50,-4.57 -265.56,-4.37 -265.69,-4.20 -265.81,-4.03 -265.99,-3.90 -266.16,-3.78 -266.36,-3.72 -266.57,-3.66 -266.78,-3.67 -266.99,-3.68 -267.19,-3.75 -267.39,-3.83 -267.55,-3.96 -267.72,-4.09 -267.83,-4.27 -267.94,-4.45 -267.99,-4.66 -268.04,-4.87 -268.02,-5.08 -268.01,-5.29 -267.92,-5.49 -267.83,-5.68 -267.69,-5.84 -267.55,-5.99 -267.55,-5.99 -267.55,-5.99 -266.77,-7.33 -265.99,-8.67 -264.99,-10.48 -263.99,-12.29 -263.10,-13.50 -262.22,-14.72 -262.02,-15.80 -261.83,-16.88 -261.76,-18.35 -261.69,-19.82 -261.52,-22.42 -261.35,-25.01 -260.97,-27.27 -260.58,-29.53 -260.02,-31.67 -259.45,-33.82 -258.50,-36.12 -257.55,-38.43 -256.33,-41.15 -255.11,-43.88 -253.26,-47.55 -251.42,-51.22 -247.83,-57.28 -244.24,-63.33 -237.05,-74.69 -229.86,-86.04 -228.66,-88.29 -227.46,-90.54 -226.47,-92.53 -225.48,-94.51 -224.87,-96.07 -224.27,-97.62 -223.85,-99.00 -223.42,-100.39 -222.79,-102.18 -222.16,-103.97 -221.66,-105.59 -221.15,-107.21 -220.58,-108.53 -220.01,-109.86 -219.36,-111.00 -218.70,-112.15 -218.01,-113.43 -217.32,-114.71 -216.36,-116.11 -215.40,-117.51 -214.12,-119.19 -212.84,-120.87 -211.23,-123.07 -209.62,-125.27 -208.10,-127.43 -206.57,-129.59 -204.94,-131.93 -203.31,-134.28 -201.52,-136.92 -199.73,-139.56 -197.69,-142.30 -195.66,-145.03 -193.07,-148.40 -190.47,-151.76 -187.78,-154.55 -185.09,-157.34 -183.07,-158.80 -181.05,-160.26 -179.48,-160.99 -177.91,-161.71 -176.34,-162.36 -174.77,-163.01 -173.57,-163.61 -172.36,-164.20 -171.36,-164.70 -170.35,-165.19 -169.12,-165.77 -167.90,-166.35 -166.69,-166.73 -165.47,-167.11 -164.14,-167.38 -162.81,-167.64 -161.49,-167.64 -160.17,-167.63 -158.87,-167.62 -157.58,-167.60 -156.34,-167.57 -155.10,-167.53 -153.71,-167.45 -152.31,-167.37 -150.56,-167.18 -148.82,-166.98 -146.23,-166.52 -143.65,-166.06 -140.25,-165.02 -136.85,-163.97 -132.34,-162.38 -127.83,-160.80 -120.47,-157.99 -113.11,-155.18 -109.81,-153.55 -106.51,-151.91 -103.65,-150.53 -100.79,-149.15 -98.35,-147.85 -95.90,-146.54 -93.43,-145.30 -90.95,-144.05 -88.01,-142.56 -85.07,-141.07 -82.35,-139.47 -79.63,-137.88 -75.94,-135.68 -72.25,-133.47 -68.47,-130.97 -64.70,-128.47 -59.75,-125.04 -54.81,-121.62 -50.76,-118.43 -46.70,-115.24 -41.99,-110.96 -37.29,-106.68 -33.40,-102.69 -29.51,-98.70 -26.52,-94.95 -23.52,-91.19 -21.31,-87.21 -19.09,-83.24 -17.64,-80.03 -16.20,-76.83 -14.68,-72.58 -13.15,-68.33 -11.90,-64.40 -10.65,-60.48 -9.94,-57.51 -9.22,-54.53 -8.44,-50.66 -7.65,-46.78 -7.17,-43.62 -6.70,-40.45 -6.38,-38.28 -6.07,-36.10 -5.72,-33.35 -5.38,-30.60 -4.94,-28.29 -4.50,-25.98 -4.21,-24.25 -3.91,-22.51 -3.54,-21.10 -3.17,-19.69 -2.67,-17.83 -2.17,-15.96 -1.71,-14.47 -1.25,-12.98 -0.84,-11.81 -0.42,-10.64 -0.03,-9.64 0.35,-8.64 0.83,-6.85 1.31,-5.06 1.31,-3.57 1.31,-2.08 1.31,-1.04 1.31,0 1.29,0.15 1.27,0.31 1.21,0.46 1.16,0.61 1.07,0.74 0.98,0.87 0.86,0.97 0.74,1.08 0.60,1.15 0.46,1.22 0.31,1.26 0.15,1.30 -0.00,1.30 -0.15,1.30 -0.31,1.26 -0.46,1.22 -0.60,1.15 -0.74,1.08 -0.86,0.97 -0.98,0.87 -1.07,0.74 -1.16,0.61 -1.21,0.46 -1.27,0.31 -1.29,0.15 -1.31,-0.00 -1.31,-0.00 L -1.31,0 Z"/></g><g transform="translate(966.4053250602102 434.24053197113665) rotate(359.3266980284369 -0.6666717529296875 -7)" stroke="none"><path fill="#000000" d="M -2.73,0.26 Q -2.73,0.26 -3.32,-3.74 -3.91,-7.75 -3.90,-8.13 -3.89,-8.51 -3.78,-8.87 -3.68,-9.24 -3.50,-9.57 -3.31,-9.91 -3.05,-10.18 -2.79,-10.46 -2.47,-10.67 -2.16,-10.88 -1.80,-11.00 -1.44,-11.13 -1.06,-11.17 -0.68,-11.20 -0.30,-11.15 0.06,-11.09 0.42,-10.95 0.77,-10.80 1.08,-10.58 1.38,-10.35 1.63,-10.06 1.87,-9.77 2.04,-9.43 2.21,-9.09 2.29,-8.72 2.37,-8.34 1.87,-5.96 1.36,-3.58 1.34,-3.30 1.32,-3.03 1.22,-2.77 1.11,-2.52 0.93,-2.31 0.75,-2.11 0.51,-1.97 0.28,-1.83 0.01,-1.77 -0.25,-1.72 -0.52,-1.75 -0.80,-1.78 -1.05,-1.90 -1.29,-2.02 -1.49,-2.21 -1.69,-2.41 -1.81,-2.65 -1.94,-2.90 -1.98,-3.17 -2.02,-3.44 -1.97,-3.71 -1.92,-3.98 -1.79,-4.22 -1.66,-4.46 -1.46,-4.65 -1.26,-4.84 -1.00,-4.95 -0.75,-5.06 -0.48,-5.09 -0.21,-5.11 0.05,-5.05 0.32,-4.99 0.55,-4.84 0.79,-4.70 0.96,-4.48 1.14,-4.27 1.24,-4.02 1.33,-3.76 1.35,-3.48 1.36,-3.21 1.28,-2.95 1.20,-2.68 1.04,-2.46 0.89,-2.23 0.67,-2.07 0.44,-1.90 0.18,-1.82 -0.07,-1.74 -0.34,-1.74 -0.62,-1.74 -0.88,-1.83 -1.14,-1.93 -1.35,-2.09 -1.57,-2.26 -1.72,-2.49 -1.87,-2.72 -1.94,-2.99 -2.01,-3.26 -2.01,-3.26 -2.01,-3.26 -2.96,-5.50 -3.91,-7.75 -3.90,-8.13 -3.89,-8.51 -3.78,-8.87 -3.68,-9.24 -3.50,-9.57 -3.31,-9.91 -3.05,-10.18 -2.79,-10.46 -2.48,-10.67 -2.16,-10.88 -1.80,-11.00 -1.44,-11.13 -1.06,-11.17 -0.68,-11.20 -0.30,-11.15 0.06,-11.09 0.42,-10.95 0.77,-10.80 1.08,-10.58 1.38,-10.35 1.63,-10.06 1.87,-9.77 2.04,-9.43 2.21,-9.09 2.29,-8.72 2.37,-8.34 2.55,-4.30 2.73,-0.26 2.73,0.07 2.72,0.40 2.63,0.72 2.54,1.04 2.38,1.33 2.22,1.62 1.99,1.86 1.77,2.10 1.49,2.28 1.21,2.46 0.90,2.57 0.58,2.68 0.25,2.71 -0.07,2.75 -0.39,2.70 -0.72,2.65 -1.03,2.52 -1.34,2.40 -1.60,2.20 -1.87,2.01 -2.09,1.75 -2.30,1.50 -2.45,1.20 -2.59,0.90 -2.66,0.58 -2.73,0.26 -2.73,0.26 L -2.73,0.26 Z"/></g><g transform="translate(970.3468359097036 440.1273049544735) rotate(359.3266980284369 3.8889007568359375 -20.111114501953125)" stroke="none"><path fill="#000000" d="M -1.34,0.31 Q -1.34,0.31 -2.05,-0.66 -2.75,-1.64 -3.11,-3.40 -3.46,-5.16 -3.86,-7.11 -4.26,-9.07 -4.23,-10.25 -4.20,-11.43 -4.28,-13.25 -4.35,-15.08 -4.49,-17.06 -4.62,-19.04 -4.63,-20.15 -4.63,-21.26 -4.78,-23.37 -4.92,-25.48 -4.90,-26.66 -4.88,-27.85 -4.81,-28.93 -4.73,-30.01 -4.56,-31.24 -4.39,-32.46 -4.04,-34.15 -3.68,-35.83 -3.54,-37.05 -3.40,-38.28 -3.42,-39.47 -3.44,-40.67 -3.56,-41.92 -3.68,-43.18 -3.79,-44.15 -3.89,-45.12 -3.90,-45.44 -3.90,-45.75 -3.83,-46.06 -3.76,-46.37 -3.62,-46.66 -3.47,-46.94 -3.27,-47.18 -3.06,-47.43 -2.80,-47.61 -2.54,-47.80 -2.25,-47.91 -1.95,-48.03 -1.64,-48.07 -1.32,-48.12 -1.00,-48.08 -0.69,-48.05 -0.39,-47.94 -0.09,-47.84 0.16,-47.66 0.43,-47.48 0.64,-47.25 0.86,-47.01 1.01,-46.73 1.16,-46.45 1.24,-46.15 1.33,-45.84 0.46,-47.01 -0.39,-48.17 0.79,-48.10 1.98,-48.02 3.17,-47.75 4.36,-47.48 5.47,-47.23 6.57,-46.97 7.53,-46.43 8.50,-45.88 9.62,-44.52 10.74,-43.15 11.02,-42.04 11.30,-40.92 11.09,-39.56 10.88,-38.20 10.16,-36.15 9.45,-34.10 8.99,-32.81 8.53,-31.51 8.02,-30.01 7.50,-28.50 7.12,-26.94 6.74,-25.37 6.04,-23.75 5.35,-22.12 4.61,-20.22 3.88,-18.32 3.38,-17.29 2.87,-16.25 2.73,-16.03 2.59,-15.81 2.42,-15.54 2.24,-15.27 2.01,-15.05 1.77,-14.83 1.49,-14.68 1.21,-14.52 0.90,-14.44 0.59,-14.35 0.27,-14.34 -0.04,-14.34 -0.36,-14.41 -0.67,-14.48 -0.96,-14.62 -1.24,-14.76 -1.49,-14.97 -1.74,-15.17 -1.92,-15.43 -2.11,-15.69 -2.23,-15.99 -2.36,-16.29 -2.40,-16.61 -2.45,-16.92 -2.42,-17.24 -2.39,-17.56 -2.28,-17.87 -2.17,-18.17 -1.27,-18.95 -0.36,-19.74 0.90,-20.69 2.16,-21.64 3.58,-22.16 5.00,-22.69 6.97,-22.51 8.93,-22.32 9.93,-21.61 10.93,-20.89 11.76,-18.94 12.60,-17.00 12.57,-15.68 12.54,-14.36 12.17,-12.75 11.80,-11.13 11.26,-9.48 10.71,-7.82 10.04,-5.88 9.37,-3.94 8.47,-1.92 7.56,0.10 6.64,1.50 5.71,2.90 5.12,3.79 4.53,4.68 2.96,5.91 1.39,7.14 1.07,7.33 0.75,7.53 0.52,7.67 0.28,7.81 0.01,7.89 -0.24,7.97 -0.52,7.98 -0.80,8.00 -1.07,7.94 -1.34,7.89 -1.59,7.78 -1.84,7.66 -2.06,7.49 -2.27,7.31 -2.44,7.09 -2.61,6.87 -2.72,6.62 -2.83,6.37 -2.88,6.09 -2.93,5.82 -2.91,5.55 -2.89,5.27 -2.80,5.01 -2.72,4.74 -2.57,4.51 -2.43,4.27 -2.23,4.08 -2.03,3.88 -1.80,3.08 -1.57,2.28 -1.51,2.07 -1.46,1.87 -1.34,1.69 -1.22,1.52 -1.05,1.39 -0.88,1.26 -0.68,1.19 -0.48,1.13 -0.26,1.13 -0.05,1.13 0.14,1.20 0.34,1.26 0.51,1.39 0.68,1.52 0.80,1.70 0.92,1.87 0.97,2.08 1.03,2.28 1.02,2.50 1.00,2.71 0.93,2.91 0.85,3.10 0.71,3.26 0.57,3.43 0.39,3.53 0.21,3.64 0.00,3.69 -0.20,3.73 -0.41,3.71 -0.62,3.69 -0.81,3.60 -1.01,3.51 -1.16,3.36 -1.31,3.21 -1.41,3.03 -1.51,2.84 -1.55,2.63 -1.58,2.42 -1.54,2.21 -1.51,2.00 -1.41,1.81 -1.31,1.62 -1.15,1.48 -1.00,1.33 -0.81,1.24 -0.61,1.16 -0.40,1.13 -0.19,1.11 0.01,1.16 0.21,1.20 0.40,1.31 0.58,1.42 0.71,1.59 0.85,1.75 0.93,1.95 1.01,2.14 1.02,2.36 1.03,2.57 1.03,2.57 1.03,2.57 0.89,5.05 0.75,7.53 0.52,7.67 0.28,7.81 0.01,7.89 -0.24,7.97 -0.52,7.98 -0.80,8.00 -1.07,7.94 -1.34,7.89 -1.59,7.78 -1.84,7.66 -2.06,7.49 -2.27,7.31 -2.44,7.09 -2.61,6.87 -2.72,6.62 -2.83,6.37 -2.88,6.09 -2.93,5.82 -2.91,5.55 -2.89,5.27 -2.80,5.01 -2.72,4.74 -2.57,4.51 -2.43,4.27 -2.23,4.08 -2.03,3.88 -1.71,3.69 -1.39,3.49 -0.74,2.53 -0.08,1.56 0.52,0.67 1.13,-0.21 1.83,-1.19 2.53,-2.18 3.34,-3.97 4.16,-5.76 4.84,-7.68 5.52,-9.61 6.03,-11.03 6.54,-12.46 6.86,-13.58 7.18,-14.70 7.19,-16.00 7.20,-17.29 6.09,-17.20 4.97,-17.10 3.78,-16.45 2.59,-15.81 2.42,-15.54 2.24,-15.27 2.01,-15.05 1.77,-14.83 1.49,-14.68 1.21,-14.52 0.90,-14.44 0.59,-14.35 0.27,-14.34 -0.04,-14.34 -0.36,-14.41 -0.67,-14.48 -0.96,-14.62 -1.24,-14.76 -1.49,-14.97 -1.74,-15.17 -1.92,-15.43 -2.11,-15.69 -2.23,-15.99 -2.36,-16.29 -2.40,-16.61 -2.45,-16.92 -2.42,-17.24 -2.39,-17.56 -2.28,-17.87 -2.17,-18.17 -1.85,-18.76 -1.52,-19.34 -0.94,-20.69 -0.35,-22.03 0.06,-23.15 0.48,-24.27 1.03,-25.46 1.58,-26.66 2.03,-28.44 2.47,-30.22 3.00,-31.75 3.52,-33.29 4.01,-34.66 4.49,-36.02 4.96,-37.21 5.43,-38.40 5.53,-39.90 5.62,-41.40 4.35,-41.86 3.08,-42.31 1.44,-42.59 -0.18,-42.87 -2.04,-43.99 -3.89,-45.12 -3.90,-45.44 -3.90,-45.75 -3.83,-46.06 -3.76,-46.37 -3.62,-46.66 -3.47,-46.94 -3.27,-47.18 -3.06,-47.43 -2.80,-47.61 -2.54,-47.80 -2.25,-47.91 -1.95,-48.03 -1.64,-48.07 -1.32,-48.12 -1.00,-48.08 -0.69,-48.05 -0.39,-47.94 -0.09,-47.84 0.16,-47.66 0.43,-47.48 0.64,-47.25 0.86,-47.01 1.01,-46.73 1.16,-46.45 1.24,-46.15 1.33,-45.84 1.36,-45.34 1.39,-44.84 1.51,-43.66 1.62,-42.47 1.76,-40.78 1.90,-39.09 1.77,-37.72 1.63,-36.35 1.40,-34.80 1.16,-33.25 0.84,-31.44 0.51,-29.63 0.40,-27.76 0.30,-25.90 0.39,-24.75 0.48,-23.61 0.52,-21.60 0.57,-19.60 0.71,-18.27 0.84,-16.94 0.87,-15.22 0.89,-13.50 0.94,-12.37 0.98,-11.25 0.94,-9.69 0.89,-8.13 1.23,-7.01 1.57,-5.89 1.65,-4.29 1.73,-2.69 1.53,-1.50 1.34,-0.31 1.36,-0.15 1.38,0.01 1.36,0.17 1.33,0.34 1.27,0.50 1.21,0.65 1.12,0.79 1.02,0.92 0.89,1.03 0.77,1.14 0.62,1.22 0.47,1.29 0.31,1.33 0.15,1.37 -0.01,1.37 -0.18,1.37 -0.34,1.32 -0.50,1.28 -0.65,1.20 -0.79,1.12 -0.92,1.01 -1.04,0.90 -1.13,0.76 -1.23,0.62 -1.28,0.47 -1.34,0.31 -1.34,0.31 L -1.34,0.31 Z"/></g><g transform="translate(736.7783499343885 73.31503869340216) rotate(359.3266980284369 18.22222137451172 -30.77777099609375)" stroke="none"><path fill="#000000" d="M -1.28,-0.25 Q -1.28,-0.25 -1.78,-2.01 -2.27,-3.77 -2.16,-5.60 -2.05,-7.43 -1.99,-9.82 -1.94,-12.21 -1.98,-14.67 -2.02,-17.12 -2.04,-19.87 -2.06,-22.61 -2.13,-25.40 -2.20,-28.19 -2.17,-30.86 -2.14,-33.52 -2.06,-35.87 -1.98,-38.22 -1.75,-40.46 -1.52,-42.71 -1.09,-45.07 -0.66,-47.43 -0.22,-49.46 0.21,-51.49 0.81,-53.42 1.41,-55.35 1.99,-56.95 2.57,-58.55 3.23,-59.76 3.88,-60.96 4.57,-61.82 5.25,-62.68 6.37,-63.34 7.48,-64.00 8.68,-64.20 9.89,-64.41 11.53,-63.89 13.16,-63.36 14.47,-62.20 15.77,-61.04 17.11,-59.08 18.44,-57.13 19.63,-55.03 20.82,-52.92 21.91,-50.64 23.01,-48.36 23.88,-46.71 24.75,-45.06 25.69,-43.34 26.64,-41.62 27.59,-39.66 28.54,-37.70 29.45,-35.72 30.36,-33.74 31.24,-31.99 32.11,-30.25 33.03,-28.89 33.95,-27.52 34.65,-26.40 35.35,-25.27 36.24,-24.27 37.13,-23.27 37.23,-23.15 37.33,-23.03 37.39,-22.88 37.46,-22.74 37.49,-22.58 37.52,-22.43 37.51,-22.27 37.50,-22.11 37.46,-21.96 37.41,-21.81 37.33,-21.67 37.25,-21.53 37.14,-21.42 37.03,-21.31 36.90,-21.22 36.76,-21.14 36.61,-21.09 36.46,-21.04 36.30,-21.03 36.15,-21.02 35.99,-21.05 35.83,-21.07 35.69,-21.14 35.54,-21.20 35.42,-21.30 35.29,-21.39 35.13,-22.09 34.97,-22.78 35.08,-22.96 35.18,-23.15 35.34,-23.29 35.50,-23.43 35.69,-23.52 35.89,-23.61 36.10,-23.62 36.31,-23.64 36.52,-23.59 36.72,-23.54 36.90,-23.43 37.08,-23.32 37.22,-23.15 37.35,-22.99 37.42,-22.79 37.50,-22.59 37.51,-22.38 37.51,-22.16 37.45,-21.96 37.39,-21.76 37.27,-21.58 37.14,-21.41 36.97,-21.28 36.80,-21.16 36.60,-21.10 36.40,-21.03 36.18,-21.04 35.97,-21.04 35.77,-21.11 35.57,-21.19 35.40,-21.32 35.24,-21.45 35.12,-21.63 35.01,-21.81 34.95,-22.01 34.90,-22.22 34.92,-22.43 34.93,-22.64 35.02,-22.84 35.10,-23.03 35.24,-23.19 35.38,-23.35 35.57,-23.46 35.75,-23.56 35.96,-23.60 36.17,-23.65 36.38,-23.62 36.59,-23.59 36.78,-23.50 36.97,-23.40 37.12,-23.25 37.27,-23.11 37.37,-22.92 37.46,-22.73 37.49,-22.52 37.52,-22.31 37.33,-22.79 37.13,-23.27 37.23,-23.15 37.33,-23.03 37.39,-22.88 37.46,-22.74 37.49,-22.58 37.52,-22.43 37.51,-22.27 37.50,-22.11 37.46,-21.96 37.41,-21.81 37.33,-21.67 37.25,-21.54 37.14,-21.42 37.03,-21.31 36.90,-21.23 36.76,-21.14 36.61,-21.09 36.46,-21.04 36.30,-21.03 36.15,-21.02 35.99,-21.05 35.83,-21.07 35.69,-21.14 35.54,-21.20 35.42,-21.30 35.29,-21.39 33.76,-20.63 32.23,-19.86 31.20,-20.91 30.16,-21.96 29.48,-23.03 28.80,-24.09 27.69,-25.78 26.57,-27.47 25.65,-29.31 24.74,-31.14 23.85,-33.07 22.96,-34.99 22.08,-36.82 21.20,-38.64 20.23,-40.41 19.26,-42.17 18.34,-43.92 17.42,-45.68 16.42,-47.78 15.41,-49.89 14.35,-51.79 13.29,-53.70 12.34,-55.17 11.39,-56.65 10.56,-57.64 9.73,-58.63 8.96,-57.55 8.20,-56.47 7.66,-55.01 7.12,-53.55 6.59,-51.88 6.06,-50.21 5.63,-48.28 5.21,-46.35 4.81,-44.21 4.41,-42.08 4.19,-40.05 3.97,-38.02 3.89,-35.73 3.82,-33.44 3.78,-30.89 3.74,-28.34 3.81,-25.49 3.88,-22.65 3.90,-19.93 3.92,-17.22 3.95,-14.64 3.99,-12.07 3.93,-9.55 3.87,-7.03 3.71,-4.82 3.55,-2.61 2.41,-1.17 1.28,0.25 1.23,0.40 1.18,0.55 1.10,0.69 1.02,0.82 0.90,0.93 0.79,1.04 0.65,1.12 0.51,1.20 0.36,1.25 0.21,1.29 0.05,1.30 -0.10,1.31 -0.25,1.27 -0.41,1.24 -0.55,1.18 -0.69,1.11 -0.82,1.01 -0.94,0.91 -1.03,0.78 -1.13,0.66 -1.19,0.51 -1.26,0.37 -1.28,0.21 -1.31,0.05 -1.30,-0.09 -1.28,-0.25 -1.28,-0.25 L -1.28,-0.25 Z"/></g><g transform="translate(727.4391607435184 43.20647217236083) rotate(359.3266980284369 17.888885498046875 -1.1111297607421875)" stroke="none"><path fill="#000000" d="M 1.44,-2.66 Q 1.44,-2.66 3.04,-1.96 4.64,-1.25 5.83,-0.80 7.01,-0.34 9.02,-0.38 11.03,-0.42 12.73,-0.63 14.43,-0.84 16.21,-1.30 18.00,-1.76 19.98,-2.24 21.97,-2.73 24.41,-3.41 26.85,-4.09 30.31,-5.19 33.76,-6.29 33.97,-6.34 34.17,-6.40 34.39,-6.39 34.60,-6.38 34.80,-6.30 34.99,-6.22 35.15,-6.09 35.32,-5.95 35.43,-5.77 35.54,-5.58 35.58,-5.38 35.63,-5.17 35.61,-4.96 35.58,-4.75 35.49,-4.55 35.41,-4.36 35.26,-4.21 35.11,-4.05 34.93,-3.95 34.74,-3.85 34.53,-3.82 34.32,-3.78 34.11,-3.82 33.90,-3.85 33.71,-3.95 33.52,-4.05 33.38,-4.20 33.23,-4.36 33.14,-4.55 33.05,-4.74 33.03,-4.95 33.01,-5.17 33.05,-5.37 33.10,-5.58 33.21,-5.76 33.32,-5.94 33.48,-6.08 33.64,-6.22 33.84,-6.30 34.03,-6.38 34.25,-6.39 34.46,-6.40 34.66,-6.35 34.87,-6.29 35.04,-6.17 35.22,-6.05 35.35,-5.88 35.48,-5.71 35.55,-5.51 35.61,-5.31 35.61,-5.10 35.61,-4.89 35.55,-4.68 35.48,-4.48 35.35,-4.31 35.22,-4.14 35.05,-4.02 34.87,-3.91 34.87,-3.91 34.87,-3.91 31.73,-1.94 28.59,0.02 26.14,1.40 23.69,2.79 21.70,3.54 19.71,4.30 17.54,4.95 15.37,5.61 13.49,5.91 11.60,6.22 9.28,6.34 6.96,6.46 5.74,6.15 4.53,5.85 3.01,5.21 1.48,4.58 0.02,3.62 -1.44,2.66 -1.74,2.45 -2.03,2.24 -2.27,1.96 -2.51,1.68 -2.68,1.36 -2.84,1.03 -2.93,0.68 -3.01,0.32 -3.00,-0.03 -3.00,-0.40 -2.91,-0.75 -2.82,-1.11 -2.64,-1.43 -2.47,-1.75 -2.22,-2.02 -1.98,-2.29 -1.67,-2.49 -1.37,-2.70 -1.03,-2.82 -0.68,-2.95 -0.32,-2.99 0.03,-3.03 0.40,-2.98 0.76,-2.93 1.10,-2.79 1.44,-2.66 1.44,-2.66 L 1.44,-2.66 Z"/></g><g stroke-linecap="round"><g transform="translate(771.4083825542504 251.66427169108422) rotate(359.3266980284369 -56.076893733357224 30.2169515535074)"><path d="M-0.4 0.86 C-19.4 10.96, -94.31 49.96, -113.05 59.84 M1.6 0.27 C-17.12 10.58, -92.15 50.9, -110.81 61.07" stroke="#000000" stroke-width="1" fill="none"/></g></g><mask/><g stroke-linecap="round"><g transform="translate(825.0519130368559 278.6575599417107) rotate(359.3266980284369 -91.1866837864068 32.134226343487484)"><path d="M0.43 0.75 C-29.9 11.43, -150.96 53.77, -181.28 64.28 M-0.8 0.1 C-31.25 10.96, -151.49 55.02, -181.65 65.82" stroke="#000000" stroke-width="1" fill="none"/></g></g><mask/><g stroke-linecap="round"><g transform="translate(867.2258674210674 347.29121050109205) rotate(359.3266980284369 -119.61823720553156 10.13906801741318)"><path d="M1.04 -1.11 C-38.91 2.22, -199.17 17.62, -239.17 21.15 M0.13 0.92 C-40.02 4.43, -200.13 16.09, -240.09 19.49" stroke="#000000" stroke-width="1" fill="none"/></g></g><mask/><g transform="translate(530.6637694665185 452.9347190865585) rotate(16.149281724483636 0.7958190305618302 -53.84224926742654)" stroke="none"><path fill="#000000" d="M -5.21,-40.53 Q -5.21,-40.53 -7.80,-43.01 -10.38,-45.50 -11.41,-47.19 -12.43,-48.89 -13.06,-50.10 -13.69,-51.31 -14.65,-53.22 -15.61,-55.12 -15.90,-56.17 -16.19,-57.21 -16.33,-58.35 -16.48,-59.49 -16.78,-60.81 -17.08,-62.13 -17.24,-63.32 -17.40,-64.52 -17.50,-66.14 -17.60,-67.77 -17.37,-68.94 -17.13,-70.12 -16.27,-71.81 -15.40,-73.51 -13.55,-74.92 -11.70,-76.33 -9.80,-76.80 -7.90,-77.26 -6.58,-77.20 -5.27,-77.14 -4.10,-76.63 -2.93,-76.11 -1.77,-75.12 -0.61,-74.14 1.21,-73.40 3.05,-72.66 4.35,-72.29 5.64,-71.93 7.12,-71.36 8.61,-70.78 10.08,-69.92 11.55,-69.06 12.82,-68.03 14.08,-67.01 15.15,-65.62 16.22,-64.22 16.93,-62.59 17.65,-60.96 18.03,-59.14 18.42,-57.32 18.57,-55.53 18.72,-53.74 18.90,-52.02 19.09,-50.29 18.97,-48.45 18.86,-46.60 18.74,-45.02 18.62,-43.44 18.26,-41.92 17.89,-40.41 17.44,-39.11 17.00,-37.82 16.44,-36.78 15.88,-35.74 12.58,-34.03 9.29,-32.32 9.08,-32.28 8.88,-32.23 8.66,-32.25 8.45,-32.28 8.26,-32.37 8.07,-32.46 7.91,-32.60 7.76,-32.75 7.66,-32.94 7.56,-33.13 7.53,-33.34 7.49,-33.55 7.53,-33.76 7.56,-33.97 7.66,-34.15 7.76,-34.34 7.92,-34.49 8.07,-34.63 8.27,-34.72 8.46,-34.81 8.67,-34.83 8.88,-34.85 9.09,-34.81 9.30,-34.76 9.48,-34.65 9.66,-34.54 9.80,-34.38 9.94,-34.22 10.01,-34.02 10.09,-33.82 10.10,-33.61 10.11,-33.40 10.06,-33.19 10.00,-32.99 9.88,-32.81 9.76,-32.64 9.59,-32.51 9.42,-32.38 9.22,-32.31 9.02,-32.25 8.80,-32.25 8.59,-32.25 8.39,-32.32 8.19,-32.38 8.02,-32.51 7.85,-32.64 7.73,-32.82 7.61,-32.99 7.56,-33.20 7.50,-33.40 7.51,-33.62 7.53,-33.83 7.61,-34.03 7.68,-34.22 7.82,-34.38 7.96,-34.55 8.14,-34.66 8.33,-34.76 8.33,-34.76 8.33,-34.76 8.90,-36.08 9.47,-37.40 10.20,-38.67 10.94,-39.95 11.59,-41.95 12.23,-43.94 12.35,-45.52 12.48,-47.11 12.60,-48.37 12.73,-49.63 12.54,-51.44 12.35,-53.24 12.25,-54.67 12.15,-56.10 11.94,-57.32 11.73,-58.54 10.85,-60.32 9.97,-62.10 9.10,-62.83 8.24,-63.56 7.23,-64.19 6.23,-64.82 5.07,-65.29 3.91,-65.76 2.48,-66.16 1.05,-66.56 -0.50,-67.10 -2.05,-67.63 -3.21,-68.27 -4.36,-68.91 -5.85,-69.88 -7.34,-70.84 -8.50,-70.63 -9.65,-70.42 -10.44,-69.52 -11.22,-68.62 -11.37,-67.57 -11.51,-66.52 -11.36,-64.94 -11.20,-63.36 -10.84,-61.00 -10.48,-58.63 -10.10,-57.24 -9.71,-55.84 -9.14,-54.91 -8.58,-53.97 -8.02,-52.89 -7.47,-51.82 -6.65,-50.41 -5.84,-48.99 -4.10,-45.86 -2.36,-42.73 -2.25,-42.54 -2.14,-42.35 -2.07,-42.14 -2.01,-41.94 -2.00,-41.72 -1.99,-41.50 -2.03,-41.29 -2.07,-41.08 -2.16,-40.88 -2.25,-40.68 -2.39,-40.51 -2.52,-40.34 -2.69,-40.21 -2.86,-40.08 -3.06,-39.99 -3.26,-39.90 -3.48,-39.87 -3.69,-39.83 -3.91,-39.84 -4.12,-39.86 -4.33,-39.92 -4.54,-39.99 -4.72,-40.10 -4.91,-40.22 -5.06,-40.37 -5.21,-40.53 -5.21,-40.53 L -5.21,-40.53 Z"/></g></svg>