<svg version="1.1" xmlns="http://www.w3.org/2000/svg" viewBox="0 0 401.04671234972324 360.7845997218384" width="401.04671234972324" height="360.7845997218384">
  <!-- svg-source:excalidraw -->
  
  <defs>
    <style class="style-fonts">
      @font-face {
        font-family: "Virgil";
        src: url("https://excalidraw.com/Virgil.woff2");
      }
      @font-face {
        font-family: "Cascadia";
        src: url("https://excalidraw.com/Cascadia.woff2");
      }
    </style>
  </defs>
  <g stroke-linecap="round"><g transform="translate(369.527856372199 347.87584253805267) rotate(0 -169.0913992419518 -167.1165543597238)"><path d="M0 0 C0 0, 0 0, 0 0 M0 0 C0 0, 0 0, 0 0 M0.86 -1.01 C-77.56 -5.34, -157.81 -6.08, -359.22 -11.18 M0.18 0.42 C-86.27 -2.89, -171.91 -6.21, -359.53 -11.52 M-358.33 -12.17 C-297.74 -119.68, -234.63 -227.71, -172.95 -337.47 M-359.2 -11.3 C-320.94 -80.78, -281.67 -150.12, -172.4 -337.36 M-171.95 -337.88 C-127.03 -260.49, -81.9 -181.34, 21.39 2.15 M-172.61 -336.4 C-108.9 -228.13, -47.78 -118.21, 21.52 2.91" stroke="#000000" stroke-width="1" fill="none"/></g></g><mask/><g transform="translate(306.58779938425863 344.33251656701805) rotate(0 -102.41719055175781 -53.97703552246094)" stroke="none"><path fill="#2b8a3e" d="M -0.92,0.93 Q -0.92,0.93 -1.87,-0.00 -2.83,-0.94 -3.65,-1.89 -4.48,-2.84 -5.78,-4.35 -7.08,-5.85 -7.99,-7.09 -8.89,-8.33 -9.90,-10.09 -10.91,-11.85 -12.10,-13.64 -13.28,-15.44 -14.32,-17.43 -15.36,-19.41 -16.98,-21.75 -18.60,-24.09 -20.80,-26.98 -23.01,-29.87 -24.85,-32.19 -26.69,-34.51 -28.76,-37.33 -30.83,-40.14 -32.57,-42.37 -34.30,-44.60 -36.10,-47.12 -37.89,-49.64 -39.45,-51.83 -41.01,-54.02 -43.53,-57.58 -46.05,-61.14 -47.60,-63.46 -49.15,-65.77 -50.39,-67.62 -51.64,-69.48 -52.59,-70.99 -53.55,-72.50 -54.67,-74.42 -55.80,-76.34 -56.70,-78.02 -57.61,-79.69 -58.53,-81.20 -59.45,-82.72 -60.52,-84.17 -61.60,-85.63 -62.46,-86.65 -63.31,-87.67 -64.33,-88.76 -65.36,-89.85 -66.60,-91.12 -67.84,-92.40 -69.15,-93.44 -70.45,-94.49 -72.41,-95.87 -74.36,-97.25 -76.16,-98.49 -77.97,-99.72 -79.65,-100.70 -81.34,-101.68 -83.31,-102.73 -85.28,-103.77 -86.82,-104.50 -88.36,-105.22 -89.55,-105.49 -90.74,-105.76 -91.93,-106.02 -93.11,-106.28 -94.55,-106.38 -95.99,-106.48 -97.40,-106.52 -98.82,-106.57 -100.22,-106.59 -101.62,-106.61 -103.34,-106.61 -105.05,-106.62 -108.37,-106.63 -111.68,-106.63 -115.38,-106.00 -119.08,-105.37 -121.74,-104.80 -124.41,-104.23 -126.36,-103.56 -128.32,-102.89 -130.00,-102.33 -131.69,-101.76 -133.51,-101.02 -135.34,-100.29 -136.88,-99.59 -138.41,-98.90 -139.64,-98.13 -140.86,-97.36 -142.04,-96.51 -143.22,-95.66 -144.87,-93.76 -146.52,-91.85 -147.64,-90.06 -148.76,-88.26 -150.24,-86.15 -151.72,-84.03 -153.04,-82.45 -154.35,-80.86 -156.50,-78.76 -158.65,-76.67 -161.26,-74.28 -163.87,-71.89 -165.86,-69.98 -167.86,-68.07 -170.10,-65.71 -172.33,-63.34 -174.51,-60.75 -176.68,-58.16 -178.10,-56.41 -179.51,-54.67 -181.27,-52.16 -183.04,-49.66 -185.07,-46.28 -187.11,-42.90 -188.68,-40.34 -190.25,-37.78 -191.35,-36.11 -192.46,-34.43 -193.17,-33.22 -193.88,-32.02 -194.73,-30.42 -195.58,-28.81 -196.36,-27.56 -197.14,-26.30 -198.00,-24.84 -198.86,-23.39 -199.49,-22.37 -200.12,-21.35 -200.99,-19.46 -201.86,-17.57 -202.38,-16.57 -202.91,-15.58 -203.21,-14.09 -203.50,-12.60 -203.56,-12.39 -203.62,-12.19 -203.74,-12.01 -203.86,-11.84 -204.03,-11.71 -204.20,-11.59 -204.41,-11.52 -204.61,-11.45 -204.82,-11.46 -205.03,-11.46 -205.23,-11.53 -205.43,-11.60 -205.60,-11.73 -205.77,-11.86 -205.89,-12.04 -206.00,-12.22 -206.06,-12.42 -206.11,-12.63 -206.10,-12.84 -206.08,-13.05 -206.00,-13.25 -205.92,-13.44 -205.78,-13.60 -205.64,-13.76 -205.46,-13.87 -205.28,-13.98 -205.07,-14.02 -204.86,-14.07 -204.65,-14.04 -204.44,-14.01 -204.25,-13.92 -204.05,-13.83 -203.90,-13.68 -203.75,-13.54 -203.65,-13.35 -203.56,-13.16 -203.52,-12.95 -203.49,-12.74 -203.53,-12.53 -203.57,-12.32 -203.67,-12.13 -203.77,-11.95 -203.92,-11.80 -204.08,-11.66 -204.27,-11.57 -204.47,-11.48 -204.68,-11.46 -204.89,-11.44 -205.10,-11.49 -205.31,-11.54 -205.49,-11.65 -205.67,-11.76 -205.80,-11.93 -205.94,-12.09 -206.01,-12.29 -206.09,-12.49 -206.10,-12.70 -206.11,-12.91 -206.11,-12.91 -206.11,-12.91 -205.17,-15.79 -204.24,-18.67 -203.30,-20.70 -202.36,-22.73 -201.74,-23.73 -201.12,-24.72 -200.25,-26.21 -199.37,-27.69 -198.63,-28.87 -197.90,-30.04 -197.02,-31.70 -196.14,-33.36 -195.40,-34.62 -194.65,-35.88 -193.57,-37.51 -192.49,-39.15 -190.92,-41.71 -189.36,-44.26 -187.27,-47.72 -185.19,-51.17 -183.37,-53.74 -181.55,-56.32 -180.12,-58.08 -178.69,-59.85 -176.47,-62.50 -174.24,-65.14 -171.96,-67.56 -169.68,-69.97 -167.66,-71.90 -165.64,-73.83 -163.06,-76.19 -160.48,-78.56 -158.43,-80.55 -156.38,-82.54 -155.12,-84.04 -153.87,-85.54 -152.43,-87.60 -150.98,-89.65 -149.78,-91.57 -148.58,-93.48 -147.52,-94.82 -146.46,-96.15 -145.61,-96.97 -144.76,-97.79 -143.50,-98.69 -142.25,-99.59 -140.87,-100.45 -139.49,-101.30 -137.91,-102.01 -136.32,-102.72 -134.42,-103.49 -132.52,-104.25 -130.84,-104.82 -129.16,-105.38 -127.06,-106.09 -124.96,-106.80 -122.23,-107.38 -119.51,-107.97 -115.60,-108.61 -111.68,-109.26 -108.36,-109.25 -105.04,-109.25 -103.31,-109.24 -101.58,-109.23 -100.16,-109.21 -98.73,-109.19 -97.27,-109.14 -95.80,-109.09 -94.18,-108.97 -92.56,-108.85 -91.34,-108.58 -90.13,-108.32 -88.69,-107.96 -87.25,-107.60 -85.65,-106.85 -84.05,-106.09 -82.03,-105.02 -80.01,-103.95 -78.25,-102.92 -76.48,-101.89 -74.66,-100.64 -72.84,-99.39 -70.82,-97.96 -68.80,-96.53 -67.38,-95.38 -65.96,-94.23 -64.70,-92.94 -63.44,-91.64 -62.37,-90.50 -61.30,-89.36 -60.39,-88.27 -59.48,-87.19 -58.34,-85.63 -57.21,-84.08 -56.25,-82.51 -55.30,-80.94 -54.41,-79.30 -53.53,-77.67 -52.43,-75.79 -51.34,-73.91 -50.40,-72.43 -49.45,-70.94 -48.21,-69.09 -46.97,-67.23 -45.44,-64.95 -43.90,-62.66 -41.39,-59.10 -38.87,-55.54 -37.31,-53.35 -35.74,-51.16 -33.99,-48.69 -32.23,-46.21 -30.47,-43.95 -28.71,-41.70 -26.67,-38.92 -24.64,-36.14 -22.78,-33.80 -20.92,-31.46 -18.68,-28.52 -16.44,-25.58 -14.73,-23.10 -13.03,-20.63 -12.06,-18.75 -11.09,-16.88 -9.86,-15.02 -8.63,-13.15 -7.70,-11.51 -6.77,-9.88 -5.37,-8.01 -3.96,-6.14 -3.23,-5.35 -2.49,-4.56 -1.74,-3.69 -0.98,-2.81 -0.03,-1.87 0.92,-0.93 1.02,-0.81 1.11,-0.68 1.18,-0.54 1.25,-0.39 1.28,-0.24 1.31,-0.08 1.30,0.06 1.29,0.22 1.24,0.37 1.20,0.53 1.12,0.66 1.03,0.80 0.92,0.91 0.81,1.02 0.68,1.11 0.54,1.19 0.39,1.24 0.24,1.29 0.08,1.30 -0.06,1.31 -0.22,1.28 -0.38,1.25 -0.52,1.19 -0.67,1.12 -0.79,1.03 -0.92,0.93 -0.92,0.93 L -0.92,0.93 Z"/></g><g transform="translate(331.9768946906551 347.16405953576805) rotate(0 -133.420654296875 -83.17295837402344)" stroke="none"><path fill="#e67700" d="M -1.31,0 Q -1.31,0 -1.31,-1.04 -1.31,-2.08 -1.31,-3.57 -1.31,-5.05 -1.70,-6.39 -2.10,-7.72 -2.91,-9.91 -3.73,-12.11 -4.20,-13.64 -4.68,-15.18 -5.19,-17.10 -5.71,-19.01 -6.08,-20.43 -6.45,-21.85 -6.77,-23.69 -7.09,-25.53 -7.52,-27.82 -7.96,-30.11 -8.32,-32.94 -8.67,-35.77 -8.98,-37.92 -9.30,-40.07 -9.77,-43.23 -10.25,-46.39 -11.02,-50.20 -11.80,-54.01 -12.50,-56.94 -13.20,-59.87 -14.43,-63.70 -15.65,-67.53 -17.16,-71.73 -18.67,-75.94 -20.08,-79.05 -21.48,-82.16 -23.65,-86.03 -25.81,-89.90 -28.69,-93.48 -31.56,-97.06 -35.37,-100.96 -39.17,-104.85 -43.82,-109.07 -48.47,-113.29 -52.45,-116.42 -56.43,-119.55 -61.31,-122.93 -66.19,-126.31 -69.95,-128.80 -73.70,-131.28 -77.34,-133.45 -80.97,-135.62 -83.69,-137.21 -86.40,-138.80 -89.27,-140.26 -92.14,-141.71 -94.61,-142.95 -97.08,-144.20 -99.56,-145.51 -102.03,-146.83 -104.84,-148.19 -107.65,-149.55 -110.96,-151.19 -114.28,-152.82 -121.52,-155.58 -128.76,-158.34 -133.24,-159.92 -137.72,-161.49 -141.07,-162.52 -144.42,-163.55 -146.84,-163.97 -149.27,-164.40 -150.93,-164.58 -152.60,-164.76 -153.93,-164.84 -155.26,-164.91 -156.45,-164.95 -157.65,-164.98 -158.93,-164.99 -160.20,-165.01 -161.50,-165.01 -162.81,-165.02 -163.87,-164.78 -164.93,-164.54 -166.01,-164.19 -167.10,-163.85 -168.16,-163.33 -169.22,-162.82 -170.21,-162.33 -171.20,-161.85 -172.40,-161.25 -173.60,-160.66 -175.25,-159.97 -176.90,-159.29 -178.42,-158.59 -179.94,-157.88 -181.74,-156.55 -183.53,-155.22 -186.06,-152.58 -188.58,-149.95 -191.08,-146.69 -193.58,-143.43 -195.60,-140.71 -197.62,-138.00 -199.37,-135.40 -201.13,-132.80 -202.77,-130.45 -204.41,-128.09 -205.94,-125.92 -207.48,-123.76 -209.10,-121.54 -210.72,-119.32 -212.02,-117.62 -213.31,-115.92 -214.23,-114.58 -215.15,-113.23 -215.77,-112.07 -216.39,-110.91 -217.06,-109.73 -217.73,-108.56 -218.23,-107.37 -218.73,-106.18 -219.19,-104.68 -219.65,-103.19 -220.30,-101.35 -220.94,-99.52 -221.35,-98.18 -221.76,-96.85 -222.39,-95.21 -223.02,-93.57 -224.07,-91.47 -225.11,-89.37 -226.33,-87.09 -227.55,-84.81 -234.78,-73.37 -242.02,-61.93 -245.59,-55.91 -249.16,-49.89 -250.96,-46.29 -252.77,-42.70 -253.96,-40.03 -255.16,-37.36 -256.09,-35.09 -257.02,-32.82 -257.53,-30.84 -258.04,-28.87 -258.40,-26.72 -258.76,-24.57 -258.92,-22.11 -259.07,-19.65 -259.14,-18.20 -259.20,-16.75 -259.45,-15.45 -259.70,-14.14 -260.36,-13.26 -261.01,-12.37 -261.89,-10.85 -262.77,-9.33 -264.34,-6.63 -265.92,-3.93 -266.11,-3.83 -266.29,-3.73 -266.50,-3.69 -266.71,-3.65 -266.92,-3.68 -267.13,-3.71 -267.32,-3.81 -267.51,-3.90 -267.66,-4.05 -267.81,-4.21 -267.90,-4.40 -267.99,-4.59 -268.02,-4.80 -268.05,-5.01 -268.00,-5.22 -267.96,-5.43 -267.86,-5.61 -267.75,-5.79 -267.59,-5.93 -267.43,-6.08 -267.24,-6.16 -267.04,-6.24 -266.83,-6.26 -266.62,-6.27 -266.41,-6.22 -266.21,-6.17 -266.03,-6.05 -265.85,-5.93 -265.72,-5.77 -265.59,-5.60 -265.51,-5.40 -265.44,-5.20 -265.44,-4.99 -265.43,-4.78 -265.50,-4.57 -265.56,-4.37 -265.69,-4.20 -265.81,-4.03 -265.99,-3.90 -266.16,-3.78 -266.36,-3.72 -266.57,-3.66 -266.78,-3.67 -266.99,-3.68 -267.19,-3.75 -267.39,-3.83 -267.55,-3.96 -267.72,-4.09 -267.83,-4.27 -267.94,-4.45 -267.99,-4.66 -268.04,-4.87 -268.02,-5.08 -268.01,-5.29 -267.92,-5.49 -267.83,-5.68 -267.69,-5.84 -267.55,-5.99 -267.55,-5.99 -267.55,-5.99 -266.77,-7.33 -265.99,-8.67 -264.99,-10.48 -263.99,-12.29 -263.10,-13.50 -262.22,-14.72 -262.02,-15.80 -261.83,-16.88 -261.76,-18.35 -261.69,-19.82 -261.52,-22.42 -261.35,-25.01 -260.97,-27.27 -260.58,-29.53 -260.02,-31.67 -259.45,-33.82 -258.50,-36.12 -257.55,-38.43 -256.33,-41.15 -255.11,-43.88 -253.26,-47.55 -251.42,-51.22 -247.83,-57.28 -244.24,-63.33 -237.05,-74.69 -229.86,-86.04 -228.66,-88.29 -227.46,-90.54 -226.47,-92.53 -225.48,-94.51 -224.87,-96.07 -224.27,-97.62 -223.85,-99.00 -223.42,-100.39 -222.79,-102.18 -222.16,-103.97 -221.66,-105.59 -221.15,-107.21 -220.58,-108.53 -220.01,-109.86 -219.36,-111.00 -218.70,-112.15 -218.01,-113.43 -217.32,-114.71 -216.36,-116.11 -215.40,-117.51 -214.12,-119.19 -212.84,-120.87 -211.23,-123.07 -209.62,-125.27 -208.10,-127.43 -206.57,-129.59 -204.94,-131.93 -203.31,-134.28 -201.52,-136.92 -199.73,-139.56 -197.69,-142.30 -195.66,-145.03 -193.07,-148.40 -190.47,-151.76 -187.78,-154.55 -185.09,-157.34 -183.07,-158.80 -181.05,-160.26 -179.48,-160.99 -177.91,-161.71 -176.34,-162.36 -174.77,-163.01 -173.57,-163.61 -172.36,-164.20 -171.36,-164.70 -170.35,-165.19 -169.12,-165.77 -167.90,-166.35 -166.69,-166.73 -165.47,-167.11 -164.14,-167.38 -162.81,-167.64 -161.49,-167.64 -160.17,-167.63 -158.87,-167.62 -157.58,-167.60 -156.34,-167.57 -155.10,-167.53 -153.71,-167.45 -152.31,-167.37 -150.56,-167.18 -148.82,-166.98 -146.23,-166.52 -143.65,-166.06 -140.25,-165.02 -136.85,-163.97 -132.34,-162.38 -127.83,-160.80 -120.47,-157.99 -113.11,-155.18 -109.81,-153.55 -106.51,-151.91 -103.65,-150.53 -100.79,-149.15 -98.35,-147.85 -95.90,-146.54 -93.43,-145.30 -90.95,-144.05 -88.01,-142.56 -85.07,-141.07 -82.35,-139.47 -79.63,-137.88 -75.94,-135.68 -72.25,-133.47 -68.47,-130.97 -64.70,-128.47 -59.75,-125.04 -54.81,-121.62 -50.76,-118.43 -46.70,-115.24 -41.99,-110.96 -37.29,-106.68 -33.40,-102.69 -29.51,-98.70 -26.52,-94.95 -23.52,-91.19 -21.31,-87.21 -19.09,-83.24 -17.64,-80.03 -16.20,-76.83 -14.68,-72.58 -13.15,-68.33 -11.90,-64.40 -10.65,-60.48 -9.94,-57.51 -9.22,-54.53 -8.44,-50.66 -7.65,-46.78 -7.17,-43.62 -6.70,-40.45 -6.38,-38.28 -6.07,-36.10 -5.72,-33.35 -5.38,-30.60 -4.94,-28.29 -4.50,-25.98 -4.21,-24.25 -3.91,-22.51 -3.54,-21.10 -3.17,-19.69 -2.67,-17.83 -2.17,-15.96 -1.71,-14.47 -1.25,-12.98 -0.84,-11.81 -0.42,-10.64 -0.03,-9.64 0.35,-8.64 0.83,-6.85 1.31,-5.06 1.31,-3.57 1.31,-2.08 1.31,-1.04 1.31,0 1.29,0.15 1.27,0.31 1.21,0.46 1.16,0.61 1.07,0.74 0.98,0.87 0.86,0.97 0.74,1.08 0.60,1.15 0.46,1.22 0.31,1.26 0.15,1.30 -0.00,1.30 -0.15,1.30 -0.31,1.26 -0.46,1.22 -0.60,1.15 -0.74,1.08 -0.86,0.97 -0.98,0.87 -1.07,0.74 -1.16,0.61 -1.21,0.46 -1.27,0.31 -1.29,0.15 -1.31,-0.00 -1.31,-0.00 L -1.31,0 Z"/></g></svg>